<svg xmlns="http://www.w3.org/2000/svg" xmlns:xlink="http://www.w3.org/1999/xlink" viewBox="0 0 311.08 361.67"><defs><style>.cls-1{fill:none;}.cls-2{isolation:isolate;}.cls-3{fill:#3f0255;}.cls-4{fill:#f0b441;}.cls-5{fill:#ffe796;}.cls-6{fill:url(#Degradado_sin_nombre_16);}.cls-7{fill:url(#Degradado_sin_nombre_15);}.cls-8{opacity:0.35;}.cls-10,.cls-52,.cls-8{mix-blend-mode:multiply;}.cls-9{fill:#b9b9b9;}.cls-10{fill:#cdcdcd;opacity:0.75;}.cls-11{fill:#ecdabf;}.cls-12{fill:#feffff;}.cls-13{clip-path:url(#clip-path);}.cls-14{fill:url(#Degradado_sin_nombre_15-2);}.cls-15{fill:url(#Degradado_sin_nombre_8);}.cls-16{fill:url(#Degradado_sin_nombre_8-2);}.cls-17{fill:url(#Degradado_sin_nombre_8-3);}.cls-18{fill:url(#Degradado_sin_nombre_8-4);}.cls-19{fill:url(#Degradado_sin_nombre_8-5);}.cls-20{fill:url(#Degradado_sin_nombre_8-6);}.cls-21{fill:url(#Degradado_sin_nombre_8-7);}.cls-22{fill:url(#Degradado_sin_nombre_8-8);}.cls-100,.cls-101,.cls-102,.cls-103,.cls-104,.cls-105,.cls-107,.cls-108,.cls-109,.cls-110,.cls-111,.cls-23,.cls-37,.cls-40,.cls-41,.cls-42,.cls-43,.cls-44,.cls-45,.cls-46,.cls-47,.cls-48,.cls-49,.cls-50,.cls-63,.cls-74,.cls-76,.cls-77,.cls-78,.cls-79,.cls-80,.cls-81,.cls-82,.cls-83,.cls-84,.cls-85,.cls-86,.cls-97,.cls-98,.cls-99{mix-blend-mode:overlay;}.cls-23{fill:url(#Degradado_sin_nombre_2);}.cls-24{fill:#fff;}.cls-25{fill:url(#Degradado_sin_nombre_3);}.cls-26{fill:#ffb41e;}.cls-27{clip-path:url(#clip-path-2);}.cls-28{fill:url(#Degradado_sin_nombre_15-3);}.cls-29{fill:url(#Degradado_sin_nombre_8-9);}.cls-30{fill:url(#Degradado_sin_nombre_8-10);}.cls-31{fill:url(#Degradado_sin_nombre_8-11);}.cls-32{fill:url(#Degradado_sin_nombre_8-12);}.cls-33{fill:url(#Degradado_sin_nombre_8-13);}.cls-34{fill:url(#Degradado_sin_nombre_8-14);}.cls-35{fill:url(#Degradado_sin_nombre_8-15);}.cls-36{fill:url(#Degradado_sin_nombre_8-16);}.cls-37{fill:url(#Degradado_sin_nombre_2-2);}.cls-38{fill:url(#Degradado_sin_nombre_3-2);}.cls-39{fill:#00ede0;}.cls-40{fill:url(#Degradado_sin_nombre_2-3);}.cls-41{fill:url(#Degradado_sin_nombre_2-4);}.cls-42{fill:url(#Degradado_sin_nombre_2-5);}.cls-43{fill:url(#Degradado_sin_nombre_2-6);}.cls-44{fill:url(#Degradado_sin_nombre_2-7);}.cls-45{fill:url(#Degradado_sin_nombre_2-8);}.cls-46{fill:url(#Degradado_sin_nombre_2-9);}.cls-47{fill:url(#Degradado_sin_nombre_2-10);}.cls-48{fill:url(#Degradado_sin_nombre_2-11);}.cls-49{fill:url(#Degradado_sin_nombre_2-12);}.cls-50{fill:url(#Degradado_sin_nombre_2-13);}.cls-51{fill:url(#Degradado_sin_nombre_14);}.cls-52{opacity:0.3;}.cls-53{clip-path:url(#clip-path-3);}.cls-54{fill:#ff008e;}.cls-55{fill:url(#Degradado_sin_nombre_8-17);}.cls-56{fill:url(#Degradado_sin_nombre_8-18);}.cls-57{fill:url(#Degradado_sin_nombre_8-19);}.cls-58{fill:url(#Degradado_sin_nombre_8-20);}.cls-59{fill:url(#Degradado_sin_nombre_8-21);}.cls-60{fill:url(#Degradado_sin_nombre_8-22);}.cls-61{fill:url(#Degradado_sin_nombre_8-23);}.cls-62{fill:url(#Degradado_sin_nombre_8-24);}.cls-63{fill:url(#Degradado_sin_nombre_2-14);}.cls-64{fill:url(#Degradado_sin_nombre_3-3);}.cls-65{clip-path:url(#clip-path-4);}.cls-66{fill:url(#Degradado_sin_nombre_8-25);}.cls-67{fill:url(#Degradado_sin_nombre_8-26);}.cls-68{fill:url(#Degradado_sin_nombre_8-27);}.cls-69{fill:url(#Degradado_sin_nombre_8-28);}.cls-70{fill:url(#Degradado_sin_nombre_8-29);}.cls-71{fill:url(#Degradado_sin_nombre_8-30);}.cls-72{fill:url(#Degradado_sin_nombre_8-31);}.cls-73{fill:url(#Degradado_sin_nombre_8-32);}.cls-74{fill:url(#Degradado_sin_nombre_2-15);}.cls-75{fill:url(#Degradado_sin_nombre_3-4);}.cls-76{fill:url(#Degradado_sin_nombre_2-16);}.cls-77{fill:url(#Degradado_sin_nombre_2-17);}.cls-78{fill:url(#Degradado_sin_nombre_2-18);}.cls-79{fill:url(#Degradado_sin_nombre_2-19);}.cls-80{fill:url(#Degradado_sin_nombre_2-20);}.cls-81{fill:url(#Degradado_sin_nombre_2-21);}.cls-82{fill:url(#Degradado_sin_nombre_2-22);}.cls-83{fill:url(#Degradado_sin_nombre_2-23);}.cls-84{fill:url(#Degradado_sin_nombre_2-24);}.cls-85{fill:url(#Degradado_sin_nombre_2-25);}.cls-86{fill:url(#Degradado_sin_nombre_2-26);}.cls-87{fill:url(#Degradado_sin_nombre_10);}.cls-88{clip-path:url(#clip-path-5);}.cls-89{fill:url(#Degradado_sin_nombre_8-33);}.cls-90{fill:url(#Degradado_sin_nombre_8-34);}.cls-91{fill:url(#Degradado_sin_nombre_8-35);}.cls-92{fill:url(#Degradado_sin_nombre_8-36);}.cls-93{fill:url(#Degradado_sin_nombre_8-37);}.cls-94{fill:url(#Degradado_sin_nombre_8-38);}.cls-95{fill:url(#Degradado_sin_nombre_8-39);}.cls-96{fill:url(#Degradado_sin_nombre_8-40);}.cls-97{fill:url(#Degradado_sin_nombre_2-27);}.cls-98{fill:url(#Degradado_sin_nombre_2-28);}.cls-99{fill:url(#Degradado_sin_nombre_2-29);}.cls-100{fill:url(#Degradado_sin_nombre_2-30);}.cls-101{fill:url(#Degradado_sin_nombre_2-31);}.cls-102{fill:url(#Degradado_sin_nombre_2-32);}.cls-103{fill:url(#Degradado_sin_nombre_2-33);}.cls-104{fill:url(#Degradado_sin_nombre_2-34);}.cls-105{fill:url(#Degradado_sin_nombre_2-35);}.cls-106{fill:url(#Degradado_sin_nombre_3-5);}.cls-107,.cls-108,.cls-109,.cls-110,.cls-111{opacity:0.9;}.cls-107{fill:url(#Degradado_sin_nombre_651);}.cls-108{fill:url(#Degradado_sin_nombre_651-2);}.cls-109{fill:url(#Degradado_sin_nombre_651-3);}.cls-110{fill:url(#Degradado_sin_nombre_651-4);}.cls-111{fill:url(#Degradado_sin_nombre_651-5);}</style><radialGradient id="Degradado_sin_nombre_16" cx="155.54" cy="311.15" r="135.73" gradientTransform="translate(0 242.25) scale(1 0.22)" gradientUnits="userSpaceOnUse"><stop offset="0" stop-color="#76571b"/><stop offset="0.39" stop-color="#78591c"/><stop offset="0.55" stop-color="#7f5e1e"/><stop offset="0.67" stop-color="#8b6722"/><stop offset="0.77" stop-color="#9d7527"/><stop offset="0.86" stop-color="#b4862e"/><stop offset="0.93" stop-color="#cf9b37"/><stop offset="1" stop-color="#f0b441"/></radialGradient><linearGradient id="Degradado_sin_nombre_15" x1="155.15" y1="264.03" x2="155.15" y2="385.15" gradientUnits="userSpaceOnUse"><stop offset="0" stop-color="#00ede0"/><stop offset="0.09" stop-color="#04e3dc"/><stop offset="0.24" stop-color="#0ec9d0"/><stop offset="0.44" stop-color="#1e9ebc"/><stop offset="0.67" stop-color="#3562a2"/><stop offset="0.93" stop-color="#521680"/><stop offset="1" stop-color="#5a0076"/></linearGradient><clipPath id="clip-path"><path class="cls-1" d="M49.74,248.45a3.08,3.08,0,0,1-2.25,3.44,7.37,7.37,0,0,1-1.52.35l-.13,0a3.06,3.06,0,0,1-3.43-2.17l-12.9-57.7a5.69,5.69,0,0,1,.3-3.4l1.82-4.53,3.53,3.36a5.71,5.71,0,0,1,1.67,2.89Z"/></clipPath><linearGradient id="Degradado_sin_nombre_15-2" x1="39.59" y1="194.89" x2="39.59" y2="284.3" xlink:href="#Degradado_sin_nombre_15"/><linearGradient id="Degradado_sin_nombre_8" x1="55.31" y1="147.06" x2="20.23" y2="188.85" gradientTransform="translate(-115.24 144.57) rotate(-51.51)" gradientUnits="userSpaceOnUse"><stop offset="0" stop-color="#fff"/><stop offset="0.24" stop-color="#f4f4f4"/><stop offset="0.65" stop-color="#d7d7d7"/><stop offset="1" stop-color="#b9b9b9"/></linearGradient><linearGradient id="Degradado_sin_nombre_8-2" x1="55.2" y1="146.97" x2="20.12" y2="188.75" xlink:href="#Degradado_sin_nombre_8"/><linearGradient id="Degradado_sin_nombre_8-3" x1="55.08" y1="146.87" x2="20.01" y2="188.66" xlink:href="#Degradado_sin_nombre_8"/><linearGradient id="Degradado_sin_nombre_8-4" x1="54.97" y1="146.78" x2="19.89" y2="188.56" xlink:href="#Degradado_sin_nombre_8"/><linearGradient id="Degradado_sin_nombre_8-5" x1="54.85" y1="146.68" x2="19.78" y2="188.46" xlink:href="#Degradado_sin_nombre_8"/><linearGradient id="Degradado_sin_nombre_8-6" x1="54.74" y1="146.58" x2="19.66" y2="188.37" xlink:href="#Degradado_sin_nombre_8"/><linearGradient id="Degradado_sin_nombre_8-7" x1="54.62" y1="146.49" x2="19.55" y2="188.27" xlink:href="#Degradado_sin_nombre_8"/><linearGradient id="Degradado_sin_nombre_8-8" x1="54.51" y1="146.39" x2="19.43" y2="188.18" xlink:href="#Degradado_sin_nombre_8"/><linearGradient id="Degradado_sin_nombre_2" x1="1225.51" y1="321.27" x2="1228.11" y2="321.27" gradientTransform="matrix(0.98, -0.22, 0.22, 0.98, -1229.54, 174.03)" gradientUnits="userSpaceOnUse"><stop offset="0" stop-color="#fff"/><stop offset="0.24" stop-color="#fff" stop-opacity="0.71"/><stop offset="0.51" stop-color="#fff" stop-opacity="0.41"/><stop offset="0.74" stop-color="#fff" stop-opacity="0.19"/><stop offset="0.91" stop-color="#fff" stop-opacity="0.05"/><stop offset="1" stop-color="#fff" stop-opacity="0"/></linearGradient><linearGradient id="Degradado_sin_nombre_3" x1="9.31" y1="188.26" x2="9.31" y2="224" gradientTransform="translate(-26.07 -35.11) rotate(-12.26)" gradientUnits="userSpaceOnUse"><stop offset="0" stop-color="#fff"/><stop offset="0.12" stop-color="#fffef1"/><stop offset="0.34" stop-color="#fffbcb"/><stop offset="0.64" stop-color="#fff78e"/><stop offset="1" stop-color="#fff13f"/></linearGradient><clipPath id="clip-path-2"><path class="cls-1" d="M259.42,229.08a3.09,3.09,0,0,0,2.25,3.44,7.53,7.53,0,0,0,1.52.35l.13,0a3.05,3.05,0,0,0,3.43-2.16L279.65,173a5.7,5.7,0,0,0-.3-3.4l-1.82-4.53L274,168.45a5.62,5.62,0,0,0-1.66,2.89Z"/></clipPath><linearGradient id="Degradado_sin_nombre_15-3" x1="269.57" y1="172.54" x2="269.57" y2="267.04" xlink:href="#Degradado_sin_nombre_15"/><linearGradient id="Degradado_sin_nombre_8-9" x1="184.36" y1="278.23" x2="149.29" y2="320.02" gradientTransform="matrix(-0.62, -0.78, -0.78, 0.62, 607.39, 144.57)" xlink:href="#Degradado_sin_nombre_8"/><linearGradient id="Degradado_sin_nombre_8-10" x1="184.25" y1="278.14" x2="149.17" y2="319.92" gradientTransform="matrix(-0.62, -0.78, -0.78, 0.62, 607.39, 144.57)" xlink:href="#Degradado_sin_nombre_8"/><linearGradient id="Degradado_sin_nombre_8-11" x1="184.13" y1="278.04" x2="149.06" y2="319.83" gradientTransform="matrix(-0.62, -0.78, -0.78, 0.62, 607.39, 144.57)" xlink:href="#Degradado_sin_nombre_8"/><linearGradient id="Degradado_sin_nombre_8-12" x1="184.02" y1="277.95" x2="148.94" y2="319.73" gradientTransform="matrix(-0.62, -0.78, -0.78, 0.62, 607.39, 144.57)" xlink:href="#Degradado_sin_nombre_8"/><linearGradient id="Degradado_sin_nombre_8-13" x1="183.9" y1="277.85" x2="148.83" y2="319.63" gradientTransform="matrix(-0.62, -0.78, -0.78, 0.62, 607.39, 144.57)" xlink:href="#Degradado_sin_nombre_8"/><linearGradient id="Degradado_sin_nombre_8-14" x1="183.79" y1="277.75" x2="148.71" y2="319.54" gradientTransform="matrix(-0.62, -0.78, -0.78, 0.62, 607.39, 144.57)" xlink:href="#Degradado_sin_nombre_8"/><linearGradient id="Degradado_sin_nombre_8-15" x1="183.67" y1="277.66" x2="148.6" y2="319.44" gradientTransform="matrix(-0.62, -0.78, -0.78, 0.62, 607.39, 144.57)" xlink:href="#Degradado_sin_nombre_8"/><linearGradient id="Degradado_sin_nombre_8-16" x1="183.56" y1="277.56" x2="148.49" y2="319.35" gradientTransform="matrix(-0.62, -0.78, -0.78, 0.62, 607.39, 144.57)" xlink:href="#Degradado_sin_nombre_8"/><linearGradient id="Degradado_sin_nombre_2-2" x1="1408.31" y1="342.31" x2="1410.91" y2="342.31" gradientTransform="matrix(-0.98, -0.22, -0.22, 0.98, 1721.69, 174.03)" xlink:href="#Degradado_sin_nombre_2"/><linearGradient id="Degradado_sin_nombre_3-2" x1="283.85" y1="142.31" x2="283.85" y2="178.05" gradientTransform="translate(30.01 -62.09) rotate(10.06)" xlink:href="#Degradado_sin_nombre_3"/><linearGradient id="Degradado_sin_nombre_2-3" x1="60.37" y1="258.87" x2="62.08" y2="258.87" gradientTransform="matrix(1, 0, 0, 1, 0, 0)" xlink:href="#Degradado_sin_nombre_2"/><linearGradient id="Degradado_sin_nombre_2-4" x1="83.66" y1="266.91" x2="85.37" y2="266.91" gradientTransform="matrix(1, 0, 0, 1, 0, 0)" xlink:href="#Degradado_sin_nombre_2"/><linearGradient id="Degradado_sin_nombre_2-5" x1="117.69" y1="265.5" x2="119.4" y2="265.5" gradientTransform="matrix(1, 0, 0, 1, 0, 0)" xlink:href="#Degradado_sin_nombre_2"/><linearGradient id="Degradado_sin_nombre_2-6" x1="93.1" y1="257.67" x2="94.8" y2="257.67" gradientTransform="matrix(1, 0, 0, 1, 0, 0)" xlink:href="#Degradado_sin_nombre_2"/><linearGradient id="Degradado_sin_nombre_2-7" x1="174.11" y1="252.85" x2="175.82" y2="252.85" gradientTransform="matrix(1, 0, 0, 1, 0, 0)" xlink:href="#Degradado_sin_nombre_2"/><linearGradient id="Degradado_sin_nombre_2-8" x1="222.9" y1="238.19" x2="224.61" y2="238.19" gradientTransform="matrix(1, 0, 0, 1, 0, 0)" xlink:href="#Degradado_sin_nombre_2"/><linearGradient id="Degradado_sin_nombre_2-9" x1="134.56" y1="259.88" x2="136.26" y2="259.88" gradientTransform="matrix(1, 0, 0, 1, 0, 0)" xlink:href="#Degradado_sin_nombre_2"/><linearGradient id="Degradado_sin_nombre_2-10" x1="221.7" y1="250.84" x2="223.4" y2="250.84" gradientTransform="matrix(1, 0, 0, 1, 0, 0)" xlink:href="#Degradado_sin_nombre_2"/><linearGradient id="Degradado_sin_nombre_2-11" x1="159.91" y1="262.24" x2="161.61" y2="262.24" gradientTransform="matrix(1, 0, 0, 1, 0, 0)" xlink:href="#Degradado_sin_nombre_2"/><linearGradient id="Degradado_sin_nombre_2-12" x1="198.05" y1="257.67" x2="199.76" y2="257.67" gradientTransform="matrix(1, 0, 0, 1, 0, 0)" xlink:href="#Degradado_sin_nombre_2"/><linearGradient id="Degradado_sin_nombre_2-13" x1="248.45" y1="245.62" x2="250.16" y2="245.62" gradientTransform="matrix(1, 0, 0, 1, 0, 0)" xlink:href="#Degradado_sin_nombre_2"/><linearGradient id="Degradado_sin_nombre_14" x1="154.41" y1="197.06" x2="154.41" y2="238.03" gradientUnits="userSpaceOnUse"><stop offset="0" stop-color="#fff13f"/><stop offset="0.23" stop-color="#ffeb3c"/><stop offset="0.53" stop-color="#ffdb33"/><stop offset="0.86" stop-color="#ffc025"/><stop offset="0.99" stop-color="#ffb41e"/></linearGradient><clipPath id="clip-path-3"><path class="cls-1" d="M85.42,173a3.08,3.08,0,0,1-2.25,3.44,7.27,7.27,0,0,1-1.51.35l-.14,0a3,3,0,0,1-3.42-2.16L65.19,116.9a5.78,5.78,0,0,1,.3-3.4L67.32,109l3.52,3.36a5.64,5.64,0,0,1,1.67,2.89Z"/></clipPath><linearGradient id="Degradado_sin_nombre_8-17" x1="136.6" y1="128.01" x2="101.53" y2="169.8" xlink:href="#Degradado_sin_nombre_8"/><linearGradient id="Degradado_sin_nombre_8-18" x1="136.49" y1="127.92" x2="101.42" y2="169.7" xlink:href="#Degradado_sin_nombre_8"/><linearGradient id="Degradado_sin_nombre_8-19" x1="136.37" y1="127.82" x2="101.3" y2="169.6" xlink:href="#Degradado_sin_nombre_8"/><linearGradient id="Degradado_sin_nombre_8-20" x1="136.26" y1="127.72" x2="101.19" y2="169.51" xlink:href="#Degradado_sin_nombre_8"/><linearGradient id="Degradado_sin_nombre_8-21" x1="136.14" y1="127.63" x2="101.07" y2="169.41" xlink:href="#Degradado_sin_nombre_8"/><linearGradient id="Degradado_sin_nombre_8-22" x1="136.03" y1="127.53" x2="100.96" y2="169.32" xlink:href="#Degradado_sin_nombre_8"/><linearGradient id="Degradado_sin_nombre_8-23" x1="135.92" y1="127.43" x2="100.84" y2="169.22" xlink:href="#Degradado_sin_nombre_8"/><linearGradient id="Degradado_sin_nombre_8-24" x1="135.8" y1="127.34" x2="100.73" y2="169.12" xlink:href="#Degradado_sin_nombre_8"/><linearGradient id="Degradado_sin_nombre_2-14" x1="1276.81" y1="255.39" x2="1279.41" y2="255.39" xlink:href="#Degradado_sin_nombre_2"/><linearGradient id="Degradado_sin_nombre_3-3" x1="58.05" y1="118.85" x2="58.05" y2="154.59" gradientTransform="translate(-17.28 -36.66) rotate(-9.91)" xlink:href="#Degradado_sin_nombre_3"/><clipPath id="clip-path-4"><path class="cls-1" d="M227.09,169.3a3.09,3.09,0,0,0,2.25,3.44,7.53,7.53,0,0,0,1.52.35l.13,0a3.05,3.05,0,0,0,3.43-2.16l12.9-57.71a5.7,5.7,0,0,0-.3-3.4l-1.82-4.53-3.53,3.36a5.62,5.62,0,0,0-1.66,2.89Z"/></clipPath><linearGradient id="Degradado_sin_nombre_8-25" x1="251.27" y1="266.33" x2="216.2" y2="308.12" gradientTransform="matrix(-0.62, -0.78, -0.78, 0.62, 607.39, 144.57)" xlink:href="#Degradado_sin_nombre_8"/><linearGradient id="Degradado_sin_nombre_8-26" x1="251.16" y1="266.24" x2="216.08" y2="308.02" gradientTransform="matrix(-0.62, -0.78, -0.78, 0.62, 607.39, 144.57)" xlink:href="#Degradado_sin_nombre_8"/><linearGradient id="Degradado_sin_nombre_8-27" x1="251.04" y1="266.14" x2="215.97" y2="307.92" gradientTransform="matrix(-0.62, -0.78, -0.78, 0.62, 607.39, 144.57)" xlink:href="#Degradado_sin_nombre_8"/><linearGradient id="Degradado_sin_nombre_8-28" x1="250.93" y1="266.04" x2="215.86" y2="307.83" gradientTransform="matrix(-0.62, -0.78, -0.78, 0.62, 607.39, 144.57)" xlink:href="#Degradado_sin_nombre_8"/><linearGradient id="Degradado_sin_nombre_8-29" x1="250.81" y1="265.95" x2="215.74" y2="307.73" gradientTransform="matrix(-0.62, -0.78, -0.78, 0.62, 607.39, 144.57)" xlink:href="#Degradado_sin_nombre_8"/><linearGradient id="Degradado_sin_nombre_8-30" x1="250.7" y1="265.85" x2="215.63" y2="307.64" gradientTransform="matrix(-0.62, -0.78, -0.78, 0.62, 607.39, 144.57)" xlink:href="#Degradado_sin_nombre_8"/><linearGradient id="Degradado_sin_nombre_8-31" x1="250.58" y1="265.75" x2="215.51" y2="307.54" gradientTransform="matrix(-0.62, -0.78, -0.78, 0.62, 607.39, 144.57)" xlink:href="#Degradado_sin_nombre_8"/><linearGradient id="Degradado_sin_nombre_8-32" x1="250.47" y1="265.66" x2="215.4" y2="307.45" gradientTransform="matrix(-0.62, -0.78, -0.78, 0.62, 607.39, 144.57)" xlink:href="#Degradado_sin_nombre_8"/><linearGradient id="Degradado_sin_nombre_2-15" x1="1452.91" y1="291.03" x2="1455.51" y2="291.03" gradientTransform="matrix(-0.98, -0.22, -0.22, 0.98, 1721.69, 174.03)" xlink:href="#Degradado_sin_nombre_2"/><linearGradient id="Degradado_sin_nombre_3-4" x1="241.27" y1="87.73" x2="241.27" y2="123.48" gradientTransform="translate(30.01 -62.09) rotate(10.06)" xlink:href="#Degradado_sin_nombre_3"/><linearGradient id="Degradado_sin_nombre_2-16" x1="96.91" y1="180.57" x2="98.62" y2="180.57" gradientTransform="matrix(1, 0, 0, 1, 0, 0)" xlink:href="#Degradado_sin_nombre_2"/><linearGradient id="Degradado_sin_nombre_2-17" x1="72.11" y1="180.77" x2="73.82" y2="180.77" gradientTransform="matrix(1, 0, 0, 1, 0, 0)" xlink:href="#Degradado_sin_nombre_2"/><linearGradient id="Degradado_sin_nombre_2-18" x1="59.77" y1="166.92" x2="61.47" y2="166.92" gradientTransform="matrix(1, 0, 0, 1, 0, 0)" xlink:href="#Degradado_sin_nombre_2"/><linearGradient id="Degradado_sin_nombre_2-19" x1="117.59" y1="187.6" x2="119.3" y2="187.6" gradientTransform="matrix(1, 0, 0, 1, 0, 0)" xlink:href="#Degradado_sin_nombre_2"/><linearGradient id="Degradado_sin_nombre_2-20" x1="167.18" y1="189" x2="168.89" y2="189" gradientTransform="matrix(1, 0, 0, 1, 0, 0)" xlink:href="#Degradado_sin_nombre_2"/><linearGradient id="Degradado_sin_nombre_2-21" x1="191.78" y1="187.6" x2="193.49" y2="187.6" gradientTransform="matrix(1, 0, 0, 1, 0, 0)" xlink:href="#Degradado_sin_nombre_2"/><linearGradient id="Degradado_sin_nombre_2-22" x1="210.75" y1="182.58" x2="212.46" y2="182.58" gradientTransform="matrix(1, 0, 0, 1, 0, 0)" xlink:href="#Degradado_sin_nombre_2"/><linearGradient id="Degradado_sin_nombre_2-23" x1="239.47" y1="180.17" x2="241.17" y2="180.17" gradientTransform="matrix(1, 0, 0, 1, 0, 0)" xlink:href="#Degradado_sin_nombre_2"/><linearGradient id="Degradado_sin_nombre_2-24" x1="136.16" y1="182.78" x2="137.87" y2="182.78" gradientTransform="matrix(1, 0, 0, 1, 0, 0)" xlink:href="#Degradado_sin_nombre_2"/><linearGradient id="Degradado_sin_nombre_2-25" x1="177.98" y1="178.56" x2="179.68" y2="178.56" gradientTransform="matrix(1, 0, 0, 1, 0, 0)" xlink:href="#Degradado_sin_nombre_2"/><linearGradient id="Degradado_sin_nombre_2-26" x1="219.34" y1="157.43" x2="221.04" y2="157.43" gradientTransform="matrix(1, 0, 0, 1, 0, 0)" xlink:href="#Degradado_sin_nombre_2"/><linearGradient id="Degradado_sin_nombre_10" x1="153.03" y1="130.37" x2="153.03" y2="192.22" gradientUnits="userSpaceOnUse"><stop offset="0" stop-color="#ff008e"/><stop offset="0.23" stop-color="#fc008c"/><stop offset="0.43" stop-color="#f10086"/><stop offset="0.61" stop-color="#df007b"/><stop offset="0.79" stop-color="#c6006c"/><stop offset="0.97" stop-color="#a60059"/><stop offset="1" stop-color="#9f0055"/></linearGradient><clipPath id="clip-path-5"><path class="cls-1" d="M157.45,113.47a3.06,3.06,0,0,1-2.95,2.85,7.36,7.36,0,0,1-1.56,0h-.14a3,3,0,0,1-2.85-2.87l.21-59.13a5.62,5.62,0,0,1,1.05-3.25l2.78-4,2.69,4.06a5.77,5.77,0,0,1,1,3.2Z"/></clipPath><linearGradient id="Degradado_sin_nombre_8-33" x1="223.74" y1="146.21" x2="188.67" y2="187.99" gradientTransform="translate(-111.32 81.56) rotate(-38.7)" xlink:href="#Degradado_sin_nombre_8"/><linearGradient id="Degradado_sin_nombre_8-34" x1="223.63" y1="146.12" x2="188.56" y2="187.9" gradientTransform="translate(-111.32 81.56) rotate(-38.7)" xlink:href="#Degradado_sin_nombre_8"/><linearGradient id="Degradado_sin_nombre_8-35" x1="223.51" y1="146.02" x2="188.44" y2="187.8" gradientTransform="translate(-111.32 81.56) rotate(-38.7)" xlink:href="#Degradado_sin_nombre_8"/><linearGradient id="Degradado_sin_nombre_8-36" x1="223.4" y1="145.92" x2="188.33" y2="187.7" gradientTransform="translate(-111.32 81.56) rotate(-38.7)" xlink:href="#Degradado_sin_nombre_8"/><linearGradient id="Degradado_sin_nombre_8-37" x1="223.28" y1="145.82" x2="188.21" y2="187.61" gradientTransform="translate(-111.32 81.56) rotate(-38.7)" xlink:href="#Degradado_sin_nombre_8"/><linearGradient id="Degradado_sin_nombre_8-38" x1="223.17" y1="145.73" x2="188.1" y2="187.51" gradientTransform="translate(-111.32 81.56) rotate(-38.7)" xlink:href="#Degradado_sin_nombre_8"/><linearGradient id="Degradado_sin_nombre_8-39" x1="223.06" y1="145.63" x2="187.98" y2="187.41" gradientTransform="translate(-111.32 81.56) rotate(-38.7)" xlink:href="#Degradado_sin_nombre_8"/><linearGradient id="Degradado_sin_nombre_8-40" x1="222.94" y1="145.54" x2="187.87" y2="187.32" gradientTransform="translate(-111.32 81.56) rotate(-38.7)" xlink:href="#Degradado_sin_nombre_8"/><linearGradient id="Degradado_sin_nombre_2-27" x1="1356.6" y1="214.5" x2="1359.2" y2="214.5" gradientTransform="translate(-1204.92 -136.55) rotate(0.21)" xlink:href="#Degradado_sin_nombre_2"/><linearGradient id="Degradado_sin_nombre_2-28" x1="106.75" y1="119.98" x2="108.46" y2="119.98" gradientTransform="matrix(1, 0, 0, 1, 0, 0)" xlink:href="#Degradado_sin_nombre_2"/><linearGradient id="Degradado_sin_nombre_2-29" x1="122.03" y1="109.49" x2="123.73" y2="109.49" gradientTransform="matrix(1, 0, 0, 1, 0, 0)" xlink:href="#Degradado_sin_nombre_2"/><linearGradient id="Degradado_sin_nombre_2-30" x1="159.19" y1="123.68" x2="160.89" y2="123.68" gradientTransform="matrix(1, 0, 0, 1, 0, 0)" xlink:href="#Degradado_sin_nombre_2"/><linearGradient id="Degradado_sin_nombre_2-31" x1="197.84" y1="112.15" x2="199.54" y2="112.15" gradientTransform="matrix(1, 0, 0, 1, 0, 0)" xlink:href="#Degradado_sin_nombre_2"/><linearGradient id="Degradado_sin_nombre_2-32" x1="177.44" y1="118.48" x2="179.15" y2="118.48" gradientTransform="matrix(1, 0, 0, 1, 0, 0)" xlink:href="#Degradado_sin_nombre_2"/><linearGradient id="Degradado_sin_nombre_2-33" x1="171.3" y1="105.53" x2="173.01" y2="105.53" gradientTransform="matrix(1, 0, 0, 1, 0, 0)" xlink:href="#Degradado_sin_nombre_2"/><linearGradient id="Degradado_sin_nombre_2-34" x1="123.01" y1="123.9" x2="124.72" y2="123.9" gradientTransform="matrix(1, 0, 0, 1, 0, 0)" xlink:href="#Degradado_sin_nombre_2"/><linearGradient id="Degradado_sin_nombre_2-35" x1="138.74" y1="121.39" x2="140.45" y2="121.39" gradientTransform="matrix(1, 0, 0, 1, 0, 0)" xlink:href="#Degradado_sin_nombre_2"/><linearGradient id="Degradado_sin_nombre_3-5" x1="155.04" y1="82.92" x2="155.04" y2="118.66" gradientTransform="translate(-1.42 -74.42) rotate(-0.17)" xlink:href="#Degradado_sin_nombre_3"/><radialGradient id="Degradado_sin_nombre_651" cx="254.73" cy="88.28" r="19.84" gradientTransform="translate(-32.87 -25.42) scale(1.11 1.22)" gradientUnits="userSpaceOnUse"><stop offset="0" stop-color="#fff"/><stop offset="0.01" stop-color="#fff" stop-opacity="0.98"/><stop offset="0.17" stop-color="#fff" stop-opacity="0.73"/><stop offset="0.34" stop-color="#fff" stop-opacity="0.51"/><stop offset="0.49" stop-color="#fff" stop-opacity="0.32"/><stop offset="0.64" stop-color="#fff" stop-opacity="0.18"/><stop offset="0.78" stop-color="#fff" stop-opacity="0.08"/><stop offset="0.9" stop-color="#fff" stop-opacity="0.02"/><stop offset="1" stop-color="#fff" stop-opacity="0"/></radialGradient><radialGradient id="Degradado_sin_nombre_651-2" cx="89.23" cy="94.13" r="19.84" gradientTransform="translate(-32.87 -25.6) scale(1.11 1.22)" xlink:href="#Degradado_sin_nombre_651"/><radialGradient id="Degradado_sin_nombre_651-3" cx="169.08" cy="44.25" r="19.84" gradientTransform="translate(-32.87 -24.08) scale(1.11 1.22)" xlink:href="#Degradado_sin_nombre_651"/><radialGradient id="Degradado_sin_nombre_651-4" cx="54.87" cy="157.04" r="19.84" gradientTransform="translate(-32.87 -27.51) scale(1.11 1.22)" xlink:href="#Degradado_sin_nombre_651"/><radialGradient id="Degradado_sin_nombre_651-5" cx="285.7" cy="140.41" r="19.84" gradientTransform="translate(-32.87 -27.01) scale(1.11 1.22)" xlink:href="#Degradado_sin_nombre_651"/></defs><title>cake</title><g class="cls-2"><g id="Layer_1" data-name="Layer 1"><ellipse class="cls-3" cx="153.64" cy="325.28" rx="150.48" ry="36.4"/><path class="cls-4" d="M308.12,316.11c0,2.1-3.61,3.35-4.8,5.36-1,1.7.07,5.36-1.71,7-1.48,1.34-5.16.11-7.14,1.39-1.71,1.1-2,5-4.06,6-1.83.93-5.16-1.06-7.26-.17-1.92.81-2.77,4.59-4.89,5.36-2,.71-5.06-1.63-7.2-.95s-3.18,4.33-5.33,4.93-5-2-7.12-1.45-3.44,4.14-5.61,4.62-4.86-2.24-7-1.81-3.63,4-5.81,4.37-4.78-2.44-6.95-2.09-3.79,3.84-6,4.15-4.7-2.6-6.89-2.32-3.9,3.71-6.09,4-4.63-2.74-6.81-2.53-4,3.61-6.2,3.79-4.56-2.86-6.75-2.7-4.11,3.49-6.29,3.62-4.49-3-6.68-2.87-4.19,3.39-6.38,3.47-4.42-3.08-6.6-3-4.29,3.3-6.47,3.32-4.36-3.17-6.54-3.17-4.38,3.2-6.54,3.17-4.3-3.27-6.46-3.32-4.45,3.1-6.61,3-4.22-3.37-6.38-3.47-4.52,3-6.67,2.87-4.15-3.47-6.3-3.62-4.6,2.88-6.74,2.7-4.06-3.58-6.2-3.79-4.68,2.76-6.82,2.53-4-3.69-6.09-4S86,353.1,83.84,352.8s-3.85-3.81-6-4.15-4.86,2.46-7,2.09-3.72-3.95-5.81-4.37-5,2.27-7,1.81-3.55-4.11-5.61-4.62-5.08,2-7.11,1.45S42,340.71,40,340.07s-5.24,1.67-7.21,1c-2.12-.77-3-4.56-4.89-5.37-2.1-.89-5.43,1.11-7.26.17-2.06-1.05-2.35-4.9-4.06-6-2-1.28-5.66-.05-7.13-1.39-1.78-1.62-.72-5.28-1.72-7-1.19-2-4.79-3.26-4.79-5.36s3.6-3.34,4.79-5.36c1-1.69-.06-5.35,1.72-7,1.48-1.34,5.16-.11,7.14-1.38,1.71-1.11,2-5,4.06-6,1.83-.94,5.16,1.06,7.26.17,1.91-.81,2.76-4.59,4.89-5.36,2-.72,5.06,1.63,7.2.95s3.17-4.33,5.33-4.93,5,2,7.12,1.44,3.44-4.13,5.6-4.61,4.87,2.23,7,1.8,3.63-4,5.8-4.36,4.78,2.43,7,2.09,3.79-3.84,6-4.15,4.7,2.59,6.88,2.32,3.91-3.72,6.1-4,4.62,2.73,6.81,2.52,4-3.6,6.2-3.78,4.56,2.86,6.74,2.7,4.11-3.5,6.3-3.62,4.49,3,6.67,2.87,4.2-3.4,6.39-3.47,4.42,3.07,6.6,3,4.28-3.29,6.47-3.32,4.35,3.18,6.54,3.18,4.37-3.2,6.53-3.18,4.31,3.28,6.47,3.32,4.45-3.1,6.6-3,4.23,3.37,6.39,3.47,4.52-3,6.67-2.87,4.15,3.47,6.3,3.62,4.59-2.88,6.74-2.7,4.06,3.57,6.2,3.78,4.68-2.76,6.82-2.52,4,3.69,6.09,4,4.76-2.62,6.89-2.32,3.85,3.81,6,4.15,4.85-2.46,7-2.09,3.72,3.95,5.81,4.36,5-2.26,7-1.8,3.54,4.1,5.6,4.61,5.08-2,7.12-1.44,3.32,4.3,5.33,4.93,5.23-1.67,7.2-.95c2.13.77,3,4.55,4.9,5.36,2.1.89,5.43-1.1,7.26-.17,2.06,1.05,2.35,4.91,4.06,6,2,1.28,5.66.05,7.13,1.39,1.78,1.61.72,5.27,1.72,7C304.51,312.77,308.12,314,308.12,316.11Z"/><path class="cls-5" d="M308.12,313.44c0,2.1-3.61,3.34-4.8,5.36-1,1.69.07,5.35-1.71,7-1.48,1.34-5.16.11-7.14,1.38-1.71,1.1-2,5-4.06,6-1.83.94-5.16-1.06-7.26-.17-1.92.81-2.77,4.59-4.89,5.36-2,.72-5.06-1.63-7.2-1s-3.18,4.33-5.33,4.93-5-2-7.12-1.44S255.17,345,253,345.5s-4.86-2.23-7-1.8-3.63,4-5.81,4.36-4.78-2.43-6.95-2.09-3.79,3.84-6,4.15-4.7-2.59-6.89-2.32-3.9,3.72-6.09,4-4.63-2.74-6.81-2.52-4,3.6-6.2,3.78-4.56-2.86-6.75-2.7-4.11,3.49-6.29,3.62-4.49-3-6.68-2.87-4.19,3.4-6.38,3.47-4.42-3.07-6.6-3-4.29,3.29-6.47,3.32-4.36-3.18-6.54-3.18-4.38,3.2-6.54,3.18-4.3-3.28-6.46-3.32-4.45,3.1-6.61,3-4.22-3.37-6.38-3.47-4.52,3-6.67,2.87-4.15-3.47-6.3-3.62-4.6,2.88-6.74,2.7-4.06-3.58-6.2-3.78S99,352,96.82,351.76s-4-3.69-6.09-4-4.77,2.62-6.89,2.32-3.85-3.81-6-4.15-4.86,2.46-7,2.09-3.72-3.95-5.81-4.36-5,2.26-7,1.8-3.55-4.1-5.61-4.61-5.08,2-7.11,1.44S42,338,40,337.4s-5.24,1.66-7.21,1c-2.12-.77-3-4.55-4.89-5.36-2.1-.89-5.43,1.1-7.26.17-2.06-1.05-2.35-4.91-4.06-6-2-1.28-5.66,0-7.13-1.39-1.78-1.61-.72-5.28-1.72-7-1.19-2-4.79-3.25-4.79-5.35s3.6-3.35,4.79-5.37c1-1.69-.06-5.35,1.72-7,1.48-1.33,5.16-.1,7.14-1.38,1.71-1.1,2-5,4.06-6,1.83-.93,5.16,1.06,7.26.17,1.91-.81,2.76-4.59,4.89-5.36,2-.71,5.06,1.63,7.2,1s3.17-4.33,5.33-4.93,5,2,7.12,1.45,3.44-4.14,5.6-4.62,4.87,2.24,7,1.81,3.63-4,5.8-4.37,4.78,2.44,7,2.09,3.79-3.84,6-4.15,4.7,2.6,6.88,2.32,3.91-3.71,6.1-4,4.62,2.74,6.81,2.53,4-3.61,6.2-3.79,4.56,2.86,6.74,2.7,4.11-3.49,6.3-3.62,4.49,3,6.67,2.87,4.2-3.4,6.39-3.47,4.42,3.08,6.6,3,4.28-3.3,6.47-3.33,4.35,3.18,6.54,3.18,4.37-3.2,6.53-3.18,4.31,3.28,6.47,3.33,4.45-3.1,6.6-3,4.23,3.37,6.39,3.47,4.52-3,6.67-2.87,4.15,3.47,6.3,3.62,4.59-2.88,6.74-2.7,4.06,3.58,6.2,3.78,4.68-2.75,6.82-2.52,4,3.69,6.09,4,4.76-2.62,6.89-2.32,3.85,3.81,6,4.15,4.85-2.46,7-2.09,3.72,3.95,5.81,4.36,5-2.26,7-1.8,3.54,4.11,5.6,4.62,5.08-2,7.12-1.45,3.32,4.3,5.33,4.93,5.23-1.66,7.2-1c2.13.77,3,4.55,4.9,5.37,2.1.89,5.43-1.11,7.26-.17,2.06,1,2.35,4.9,4.06,6,2,1.28,5.66,0,7.13,1.39,1.78,1.62.72,5.28,1.72,7C304.51,310.09,308.12,311.34,308.12,313.44Z"/><ellipse class="cls-6" cx="155.54" cy="311.15" rx="138.72" ry="34.31"/><path class="cls-7" d="M281.3,229.65c-1.44-14.76-59.09-21.21-128.76-14.39S27.56,239.56,29,254.33c0,0,0,54,0,54.23,0,14.73,56.3,26.68,125.75,26.68s125.75-11.95,125.75-26.68V233.45A6.73,6.73,0,0,0,281.3,229.65Z"/><g class="cls-8"><path class="cls-9" d="M219.89,324.94c-19.37,3.15-43.83,4.41-73.21,4.41-52.18,0-96.94-6.75-116-16.35,10,12.62,61.69,22.24,124,22.24,69.45,0,125.75-11.95,125.75-26.68V233.45a6.73,6.73,0,0,0,.84-3.8,6.34,6.34,0,0,0-.32-1.42l-6.07,41C269.32,321.79,248.41,320.29,219.89,324.94Z"/></g><path class="cls-10" d="M28.81,257.62c-1.31,10-1.27,20.24-2.58,30.2-.52,3.95.09,9.43,4.05,9.85,5.41.56,6-9.17,11.29-10.68,3.31-.95,6.55,2.13,7.57,5.42s.65,6.85,1.35,10.22,3.11,6.89,6.56,6.93c4.45.05,6.67-5.29,7.63-9.64s2.93-9.72,7.38-10c3.59-.19,6.33,3.44,7,7s-.06,7.18.3,10.75,2.33,7.48,5.85,8.17c3.87.76,7.38-2.81,8.54-6.58,1.34-4.3,1.52-9.19,3.32-13.27,1.13-2.57,3.3-4.85,6-5.36,3.47-.64,6.93,1.71,8.72,4.75,2.23,3.81,1.58,7.92,2.77,12.1a7.34,7.34,0,0,0,10.53,4.34c6.5-3.25,2-15.45,7.59-20.09a8.16,8.16,0,0,1,11.85,1.57c2.72,3.86,3.78,10.35,5.37,14.8s4.76,9,9.45,9.56,8.76-3,11-7.05,2.42-9.8,4.59-13.88a11.75,11.75,0,0,1,11-6.41c5.93.33,10.21,5.08,12.58,10.52s5.52,13.35,11.44,13.73c5.29.34,9.77-4.67,11.48-9.69s1.75-10.49,3.48-15.5,6.05-9.86,11.34-9.48c6.11.44,11.32,7.59,17,5.38,3-1.18,4.48-4.51,6.11-7.32s4.52-5.66,7.65-4.8c6.11,1.67,3.2,13.57,9.26,15.38,2.62.79,5.43-1.19,6.54-3.68s1-5.36.8-8.09l-2.7-43.6s-46.75,34.51-125,36.34S28.81,257.62,28.81,257.62Z"/><path class="cls-11" d="M28.81,254c-1.31,10-1.27,20.24-2.58,30.2-.52,3.95.09,9.43,4.05,9.85,5.41.56,6-9.17,11.29-10.68,3.31-.95,6.55,2.13,7.57,5.42s.65,6.85,1.35,10.22,3.11,6.89,6.56,6.93c4.45.05,6.67-5.29,7.63-9.64s2.93-9.72,7.38-10c3.59-.19,6.33,3.44,7,7s-.06,7.18.3,10.75,2.33,7.48,5.85,8.17c3.87.76,7.38-2.81,8.54-6.58,1.34-4.3,1.52-9.19,3.32-13.27,1.13-2.57,3.3-4.85,6-5.36,3.47-.64,6.93,1.71,8.72,4.75,2.23,3.81,1.58,7.92,2.77,12.1a7.34,7.34,0,0,0,10.53,4.34c6.5-3.25,2-15.45,7.59-20.09a8.16,8.16,0,0,1,11.85,1.57c2.72,3.86,3.78,10.35,5.37,14.8s4.76,9,9.45,9.56,8.76-3,11-7.05,2.42-9.8,4.59-13.88a11.75,11.75,0,0,1,11-6.41c5.93.33,10.21,5.08,12.58,10.52s5.52,13.35,11.44,13.73c5.29.34,9.77-4.67,11.48-9.69s1.75-10.49,3.48-15.5,6.05-9.86,11.34-9.48c6.11.44,11.32,7.59,17,5.38,3-1.18,4.48-4.51,6.11-7.32s4.52-5.66,7.65-4.8c6.11,1.67,3.2,13.57,9.26,15.38,2.62.79,5.43-1.19,6.54-3.68s1-5.36.8-8.09l-2.7-43.6S234.23,264,156,265.86,28.81,254,28.81,254Z"/><ellipse class="cls-12" cx="155.15" cy="241.99" rx="126.75" ry="26.86" transform="translate(-22.82 16.25) rotate(-5.59)"/><g class="cls-13"><path class="cls-14" d="M49.74,248.45a3.08,3.08,0,0,1-2.25,3.44,7.37,7.37,0,0,1-1.52.35l-.13,0a3.06,3.06,0,0,1-3.43-2.17l-12.9-57.7a5.69,5.69,0,0,1,.3-3.4l1.82-4.53,3.53,3.36a5.71,5.71,0,0,1,1.67,2.89Z"/><path class="cls-15" d="M50.27,246.7a13.31,13.31,0,0,1-9.52,2.13c-.32-1.44-.65-2.88-1-4.32a13.33,13.33,0,0,0,9.53-2.13Z"/><path class="cls-16" d="M48.43,238.48a13.31,13.31,0,0,1-9.52,2.13l-.58-2.6a13.31,13.31,0,0,0,9.52-2.13Z"/><path class="cls-17" d="M46.9,231.62a13.28,13.28,0,0,1-9.52,2.14c-.33-1.44-.65-2.88-1-4.32a13.3,13.3,0,0,0,9.52-2.13C46.26,228.75,46.58,230.19,46.9,231.62Z"/><path class="cls-18" d="M45.06,223.4a13.32,13.32,0,0,1-9.52,2.13c-.33-1.44-.26-1.15-.58-2.59a13.32,13.32,0,0,0,9.52-2.13C44.8,222.25,44.74,222,45.06,223.4Z"/><path class="cls-19" d="M43.53,216.55A13.33,13.33,0,0,1,34,218.68l-1-4.32a13.31,13.31,0,0,0,9.52-2.13C42.88,213.67,43.21,215.11,43.53,216.55Z"/><path class="cls-20" d="M41.69,208.33a13.33,13.33,0,0,1-9.53,2.13c-.32-1.44-.25-1.16-.58-2.6a13.33,13.33,0,0,0,9.53-2.13Z"/><path class="cls-21" d="M40.16,201.47a13.29,13.29,0,0,1-9.53,2.14c-.32-1.44-.64-2.88-1-4.32a13.33,13.33,0,0,0,9.53-2.13C39.51,198.6,39.83,200,40.16,201.47Z"/><path class="cls-22" d="M38.32,193.25a13.33,13.33,0,0,1-9.53,2.13c-.32-1.44-.26-1.15-.58-2.59a13.33,13.33,0,0,0,9.53-2.13C38.06,192.1,38,191.81,38.32,193.25Z"/></g><path class="cls-23" d="M44.19,248.17h0a1.29,1.29,0,0,1-1.55-1L30.49,192.87a1.3,1.3,0,0,1,1-1.56h0a1.32,1.32,0,0,1,1.56,1l12.15,54.32A1.31,1.31,0,0,1,44.19,248.17Z"/><path class="cls-24" d="M31.66,184.81l-1.52-4.48a.62.62,0,0,1,.38-.77.6.6,0,0,1,.77.38.5.5,0,0,1,0,.12l.54,4.7a.1.1,0,0,1-.09.12A.11.11,0,0,1,31.66,184.81Z"/><path class="cls-11" d="M54.85,251.09c-.38-2.75-4.38-4.91-9.26-4.91-4.63,0-8.46,1.95-9.18,4.49C40.09,254.86,50.73,254.86,54.85,251.09Z"/><path class="cls-25" d="M23.63,149.7h0a23.57,23.57,0,0,0,7.08,32.56h0A23.55,23.55,0,0,0,23.63,149.7Z"/><path class="cls-26" d="M26.77,164.15h0a13.11,13.11,0,0,0,3.94,18.11h0A13.11,13.11,0,0,0,26.77,164.15Z"/><g class="cls-27"><path class="cls-28" d="M259.42,229.08a3.09,3.09,0,0,0,2.25,3.44,7.53,7.53,0,0,0,1.52.35l.13,0a3.05,3.05,0,0,0,3.43-2.16L279.65,173a5.7,5.7,0,0,0-.3-3.4l-1.82-4.53L274,168.45a5.62,5.62,0,0,0-1.66,2.89Z"/><path class="cls-29" d="M258.89,227.33a13.27,13.27,0,0,0,9.52,2.13c.33-1.44.65-2.88,1-4.32a13.2,13.2,0,0,1-9.52-2.13Z"/><path class="cls-30" d="M260.73,219.11a13.32,13.32,0,0,0,9.52,2.13c.33-1.44.26-1.16.58-2.59a13.28,13.28,0,0,1-9.52-2.14Z"/><path class="cls-31" d="M262.26,212.26a13.33,13.33,0,0,0,9.53,2.13l1-4.32a13.31,13.31,0,0,1-9.52-2.13C262.91,209.38,262.58,210.82,262.26,212.26Z"/><path class="cls-32" d="M264.1,204a13.29,13.29,0,0,0,9.53,2.14c.32-1.44.25-1.16.58-2.6a13.33,13.33,0,0,1-9.53-2.13Z"/><path class="cls-33" d="M265.63,197.18a13.28,13.28,0,0,0,9.53,2.13c.32-1.44.64-2.88,1-4.32a13.28,13.28,0,0,1-9.53-2.13C266.28,194.3,266,195.74,265.63,197.18Z"/><path class="cls-34" d="M267.47,189a13.33,13.33,0,0,0,9.53,2.13l.58-2.6a13.24,13.24,0,0,1-9.53-2.13Z"/><path class="cls-35" d="M269,182.11a13.3,13.3,0,0,0,9.52,2.13c.32-1.44.65-2.88,1-4.32a13.33,13.33,0,0,1-9.53-2.13Z"/><path class="cls-36" d="M270.85,173.88a13.2,13.2,0,0,0,9.52,2.13c.32-1.44.26-1.15.58-2.59a13.3,13.3,0,0,1-9.52-2.13C271.1,172.73,271.17,172.44,270.85,173.88Z"/></g><path class="cls-37" d="M265,228.8h0a1.3,1.3,0,0,0,1.56-1l12.15-54.32a1.3,1.3,0,0,0-1-1.55h0a1.29,1.29,0,0,0-1.55,1L264,227.25A1.29,1.29,0,0,0,265,228.8Z"/><path class="cls-24" d="M277.5,165.44,279,161a.6.6,0,0,0-.38-.77.62.62,0,0,0-.77.38.59.59,0,0,0,0,.13l-.54,4.7a.1.1,0,0,0,.09.11A.1.1,0,0,0,277.5,165.44Z"/><path class="cls-11" d="M254.31,231.72c.39-2.74,4.38-4.9,9.26-4.9,4.64,0,8.46,1.94,9.18,4.48C269.78,235.18,259.51,235.5,254.31,231.72Z"/><path class="cls-38" d="M284.14,130.44h0a23.55,23.55,0,0,0-5.82,32.8h0A23.56,23.56,0,0,0,284.14,130.44Z"/><path class="cls-26" d="M281.56,145h0a13.1,13.1,0,0,0-3.24,18.25h0A13.11,13.11,0,0,0,281.56,145Z"/><ellipse class="cls-11" cx="61.37" cy="261.89" rx="2.53" ry="1.05"/><circle class="cls-39" cx="61.57" cy="259.73" r="2.41"/><path class="cls-10" d="M63.35,258.11c0,.1,0,.21,0,.31A2.41,2.41,0,0,1,61,260.83,2.39,2.39,0,0,1,59.2,260a2.4,2.4,0,1,0,4.15-1.93Z"/><ellipse class="cls-40" cx="61.22" cy="258.87" rx="0.85" ry="0.65"/><ellipse class="cls-11" cx="84.66" cy="269.92" rx="2.53" ry="1.05"/><circle class="cls-39" cx="84.86" cy="267.76" r="2.41"/><path class="cls-10" d="M86.64,266.14c0,.11,0,.21,0,.31a2.4,2.4,0,0,1-4.18,1.62,2.4,2.4,0,1,0,4.15-1.93Z"/><ellipse class="cls-41" cx="84.51" cy="266.91" rx="0.85" ry="0.65"/><ellipse class="cls-11" cx="118.7" cy="268.51" rx="2.53" ry="1.05"/><circle class="cls-39" cx="118.9" cy="266.35" r="2.41"/><path class="cls-10" d="M120.67,264.74a1.55,1.55,0,0,1,0,.31,2.4,2.4,0,0,1-4.18,1.62,2.4,2.4,0,1,0,4.15-1.93Z"/><ellipse class="cls-42" cx="118.54" cy="265.5" rx="0.85" ry="0.65"/><ellipse class="cls-11" cx="94.1" cy="260.68" rx="2.53" ry="1.05"/><circle class="cls-39" cx="94.3" cy="258.52" r="2.41"/><path class="cls-10" d="M96.08,256.91a3,3,0,0,1,0,.31,2.41,2.41,0,0,1-2.41,2.41,2.38,2.38,0,0,1-1.78-.8,2.4,2.4,0,0,0,4.79-.31A2.37,2.37,0,0,0,96.08,256.91Z"/><ellipse class="cls-43" cx="93.95" cy="257.67" rx="0.85" ry="0.65"/><ellipse class="cls-11" cx="175.12" cy="255.86" rx="2.53" ry="1.05"/><circle class="cls-39" cx="175.32" cy="253.7" r="2.41"/><path class="cls-10" d="M177.09,252.09a3,3,0,0,1,0,.31,2.4,2.4,0,0,1-4.18,1.62,2.4,2.4,0,1,0,4.15-1.93Z"/><ellipse class="cls-44" cx="174.96" cy="252.85" rx="0.85" ry="0.65"/><ellipse class="cls-11" cx="223.91" cy="241.21" rx="2.53" ry="1.05"/><circle class="cls-39" cx="224.11" cy="239.05" r="2.41"/><path class="cls-10" d="M225.88,237.43c0,.1,0,.21,0,.31a2.4,2.4,0,0,1-4.18,1.62,2.4,2.4,0,1,0,4.15-1.93Z"/><ellipse class="cls-45" cx="223.75" cy="238.19" rx="0.85" ry="0.65"/><ellipse class="cls-11" cx="135.56" cy="262.89" rx="2.53" ry="1.05"/><circle class="cls-39" cx="135.76" cy="260.73" r="2.41"/><path class="cls-10" d="M137.54,259.12a3,3,0,0,1,0,.31,2.41,2.41,0,0,1-2.41,2.41,2.38,2.38,0,0,1-1.78-.8,2.4,2.4,0,0,0,4.79-.31A2.37,2.37,0,0,0,137.54,259.12Z"/><ellipse class="cls-46" cx="135.41" cy="259.88" rx="0.85" ry="0.65"/><ellipse class="cls-11" cx="222.7" cy="253.85" rx="2.53" ry="1.05"/><circle class="cls-39" cx="222.9" cy="251.7" r="2.41"/><path class="cls-10" d="M224.68,250.08a3,3,0,0,1,0,.31,2.41,2.41,0,0,1-4.19,1.62,2.4,2.4,0,1,0,4.16-1.93Z"/><ellipse class="cls-47" cx="222.55" cy="250.84" rx="0.85" ry="0.65"/><ellipse class="cls-11" cx="160.91" cy="265.25" rx="2.53" ry="1.05"/><circle class="cls-39" cx="161.11" cy="263.09" r="2.41"/><path class="cls-10" d="M162.89,261.47c0,.11,0,.21,0,.32a2.41,2.41,0,0,1-2.41,2.41,2.38,2.38,0,0,1-1.78-.8,2.4,2.4,0,1,0,4.16-1.93Z"/><ellipse class="cls-48" cx="160.76" cy="262.24" rx="0.85" ry="0.65"/><ellipse class="cls-11" cx="199.06" cy="260.68" rx="2.53" ry="1.05"/><circle class="cls-39" cx="199.26" cy="258.52" r="2.41"/><path class="cls-10" d="M201,256.91a1.55,1.55,0,0,1,0,.31,2.41,2.41,0,0,1-2.41,2.41,2.38,2.38,0,0,1-1.78-.8,2.4,2.4,0,0,0,4.79-.31A2.37,2.37,0,0,0,201,256.91Z"/><ellipse class="cls-49" cx="198.91" cy="257.67" rx="0.85" ry="0.65"/><ellipse class="cls-11" cx="249.45" cy="248.63" rx="2.53" ry="1.05"/><circle class="cls-39" cx="249.66" cy="246.48" r="2.41"/><path class="cls-10" d="M251.43,244.86a3,3,0,0,1,0,.31,2.4,2.4,0,0,1-4.18,1.62,2.4,2.4,0,1,0,4.15-1.93Z"/><path class="cls-50" d="M250.16,245.62a.88.88,0,0,1-1.71,0,.77.77,0,0,1,.85-.65C249.78,245,250.16,245.26,250.16,245.62Z"/><path class="cls-51" d="M253.79,219.25a4.48,4.48,0,0,0-.11-.62l-.41-44.37c0-11.57-44.27-20.95-98.87-20.95s-98.88,9.38-98.88,20.95L55,237.79a5.41,5.41,0,0,0,0,.9c1.14,11.63,46.55,16.7,101.44,11.34,52.65-5.15,94.88-18,97.23-29.35h0A4.88,4.88,0,0,0,253.79,219.25Z"/><g class="cls-52"><path class="cls-9" d="M253.79,219.25a4.48,4.48,0,0,0-.11-.62l-.41-44.37a4.46,4.46,0,0,0-.12-1c-.4,6.83-2.09,12.48-3.65,18.18-3.61,13.25-6.56,23.81-17.91,31.38s-27.2,10.14-40.4,13.14a380.62,380.62,0,0,1-47.57,7.67c-37,3.62-69.71,2.49-87.44-2.2,7.48,9.68,49.89,13.56,100.29,8.63,52.65-5.15,94.88-18,97.23-29.35h0A4.88,4.88,0,0,0,253.79,219.25Z"/></g><path class="cls-10" d="M252.07,175.39c0,.44,1.26,2,1.26,2.4,0,4.7-.5,10.91,2.06,15,1.73,2.75,3.52,6.28,1.48,9.38-.88,1.34-2.05,1.57-3.66,1.49-2.47-.13-2.63-2.53-4.22-3.73s-3,.17-3.58,1.64c-.8,2.19.14,4.71-1.12,6.8-1.44,2.39-5.06,2.46-7.46,1s-4-3.85-5.85-5.93-4.4-4-7.17-3.65c-3.73.41-5.87,4.47-6.69,8.13s-.9,7-3.47,9.74c-2.42,2.57-6.76,1.51-9.75-.37s-5.83-4.5-9.36-4.63c-4.13-.16-7.58,3.24-9.58,6.86s-3.18,7.73-5.75,11a15.65,15.65,0,0,1-25.57-1.44c-2.08-3.35-2.83-7.36-4.61-10.88s-5.27-6.75-9.18-6.18c-3,.43-5.21,2.95-6.67,5.57s-2.46,5.54-4.35,7.88-5.1,4-7.9,2.93c-3.18-1.23-4.22-5.1-5-8.4s-2.48-7.15-5.85-7.6a6,6,0,0,0-5.44,2.78,16.07,16.07,0,0,0-2.23,6c-.78,3.63-1.42,7.38-3.25,10.62s-5.17,5.92-8.88,5.77c-4.3-.16-7.67-4-9-8.14s-1.05-8.5-1.39-12.79c-.18-2.16-.65-4.56-2.43-5.79-2.23-1.54-5.47-.36-7.23,1.71s-2.51,4.8-3.56,7.31A9.79,9.79,0,0,1,61,225.44a6.52,6.52,0,0,1-8.54-4c-1.34-3.62.7-8.54,1.3-12.35a155.39,155.39,0,0,0,1.75-30.66S98.5,198.3,168,195.55,252.07,175.39,252.07,175.39Z"/><path class="cls-11" d="M252.07,172.18c0,.45,1.26,2,1.26,2.41,0,4.69-.5,10.91,2.06,15,1.73,2.75,3.52,6.28,1.48,9.38-.88,1.34-2.05,1.57-3.66,1.48-2.47-.12-2.63-2.53-4.22-3.72s-3,.17-3.58,1.64c-.8,2.19.14,4.71-1.12,6.8-1.44,2.39-5.06,2.46-7.46,1s-4-3.86-5.85-5.93-4.4-4-7.17-3.66c-3.73.42-5.87,4.47-6.69,8.14s-.9,7-3.47,9.73c-2.42,2.57-6.76,1.52-9.75-.36s-5.83-4.5-9.36-4.63c-4.13-.16-7.58,3.24-9.58,6.86s-3.18,7.73-5.75,11a15.65,15.65,0,0,1-25.57-1.44c-2.08-3.35-2.83-7.36-4.61-10.88s-5.27-6.75-9.18-6.18c-3,.43-5.21,2.94-6.67,5.57s-2.46,5.54-4.35,7.88-5.1,4-7.9,2.92c-3.18-1.22-4.22-5.09-5-8.4s-2.48-7.14-5.85-7.59a6,6,0,0,0-5.44,2.78,16.09,16.09,0,0,0-2.23,6c-.78,3.64-1.42,7.38-3.25,10.62s-5.17,5.93-8.88,5.78c-4.3-.16-7.67-4-9-8.14s-1.05-8.51-1.39-12.8c-.18-2.15-.65-4.55-2.43-5.78-2.23-1.54-5.47-.36-7.23,1.71s-2.51,4.8-3.56,7.3a9.81,9.81,0,0,1-5.69,5.6,6.53,6.53,0,0,1-8.54-4c-1.34-3.62.7-8.54,1.3-12.36a155.24,155.24,0,0,0,1.75-30.65S98.5,195.1,168,192.35,252.07,172.18,252.07,172.18Z"/><ellipse class="cls-12" cx="154.4" cy="174.26" rx="98.88" ry="20.95"/><g class="cls-53"><path class="cls-54" d="M85.42,173a3.08,3.08,0,0,1-2.25,3.44,7.27,7.27,0,0,1-1.51.35l-.14,0a3,3,0,0,1-3.42-2.16L65.19,116.9a5.78,5.78,0,0,1,.3-3.4L67.32,109l3.52,3.36a5.64,5.64,0,0,1,1.67,2.89Z"/><path class="cls-55" d="M86,171.21a13.28,13.28,0,0,1-9.53,2.13l-1-4.32A13.22,13.22,0,0,0,85,166.89C85.31,168.33,85.64,169.77,86,171.21Z"/><path class="cls-56" d="M84.12,163a13.33,13.33,0,0,1-9.53,2.13c-.32-1.44-.26-1.15-.58-2.59a13.29,13.29,0,0,0,9.53-2.14Z"/><path class="cls-57" d="M82.59,156.14a13.33,13.33,0,0,1-9.53,2.13c-.32-1.44-.64-2.88-1-4.32a13.33,13.33,0,0,0,9.53-2.13C81.94,153.26,82.26,154.7,82.59,156.14Z"/><path class="cls-58" d="M80.75,147.92a13.33,13.33,0,0,1-9.53,2.13l-.58-2.6a13.33,13.33,0,0,0,9.53-2.13C80.49,146.76,80.42,146.48,80.75,147.92Z"/><path class="cls-59" d="M79.21,141.06a13.26,13.26,0,0,1-9.52,2.13l-1-4.32a13.24,13.24,0,0,0,9.53-2.13Z"/><path class="cls-60" d="M77.37,132.84A13.31,13.31,0,0,1,67.85,135l-.58-2.6a13.21,13.21,0,0,0,9.52-2.13C77.12,131.68,77.05,131.4,77.37,132.84Z"/><path class="cls-61" d="M75.84,126a13.32,13.32,0,0,1-9.52,2.13c-.33-1.44-.65-2.88-1-4.32a13.3,13.3,0,0,0,9.52-2.13C75.2,123.11,75.52,124.55,75.84,126Z"/><path class="cls-62" d="M74,117.76a13.28,13.28,0,0,1-9.52,2.14l-.58-2.6a13.32,13.32,0,0,0,9.52-2.13C73.74,116.61,73.68,116.32,74,117.76Z"/></g><path class="cls-63" d="M79.87,172.68h0a1.29,1.29,0,0,1-1.55-1L66.17,117.38a1.29,1.29,0,0,1,1-1.55h0a1.29,1.29,0,0,1,1.55,1l12.15,54.32A1.29,1.29,0,0,1,79.87,172.68Z"/><path class="cls-24" d="M67.34,109.32l-1.51-4.48a.6.6,0,0,1,.38-.77.61.61,0,0,1,.79.51l.54,4.7a.12.12,0,0,1-.09.11A.11.11,0,0,1,67.34,109.32Z"/><path class="cls-11" d="M90.54,175.6c-.39-2.74-4.39-4.9-9.27-4.9-4.63,0-8.46,1.94-9.17,4.48C75.23,178.56,85.34,179.38,90.54,175.6Z"/><path class="cls-64" d="M60.85,73.27h0a23.56,23.56,0,0,0,5.73,32.82h0A23.56,23.56,0,0,0,60.85,73.27Z"/><path class="cls-26" d="M63.39,87.84h0a13.1,13.1,0,0,0,3.19,18.25h0A13.1,13.1,0,0,0,63.39,87.84Z"/><g class="cls-65"><path class="cls-54" d="M227.09,169.3a3.09,3.09,0,0,0,2.25,3.44,7.53,7.53,0,0,0,1.52.35l.13,0a3.05,3.05,0,0,0,3.43-2.16l12.9-57.71a5.7,5.7,0,0,0-.3-3.4l-1.82-4.53-3.53,3.36a5.62,5.62,0,0,0-1.66,2.89Z"/><path class="cls-66" d="M226.56,167.55a13.27,13.27,0,0,0,9.52,2.13c.33-1.44.65-2.88,1-4.32a13.2,13.2,0,0,1-9.52-2.13C227.2,164.67,226.88,166.11,226.56,167.55Z"/><path class="cls-67" d="M228.4,159.33a13.32,13.32,0,0,0,9.52,2.13l.58-2.59a13.28,13.28,0,0,1-9.52-2.14Z"/><path class="cls-68" d="M229.93,152.48a13.33,13.33,0,0,0,9.53,2.13l1-4.32a13.31,13.31,0,0,1-9.52-2.13C230.58,149.6,230.25,151,229.93,152.48Z"/><path class="cls-69" d="M231.77,144.26a13.33,13.33,0,0,0,9.53,2.13c.32-1.44.25-1.16.58-2.6a13.33,13.33,0,0,1-9.53-2.13Z"/><path class="cls-70" d="M233.3,137.4a13.28,13.28,0,0,0,9.53,2.13c.32-1.44.64-2.88,1-4.32a13.24,13.24,0,0,1-9.53-2.13C234,134.52,233.63,136,233.3,137.4Z"/><path class="cls-71" d="M235.14,129.18a13.33,13.33,0,0,0,9.53,2.13l.58-2.6a13.24,13.24,0,0,1-9.53-2.13C235.4,128,235.47,127.74,235.14,129.18Z"/><path class="cls-72" d="M236.68,122.33a13.3,13.3,0,0,0,9.52,2.13c.32-1.44.65-2.88,1-4.32a13.33,13.33,0,0,1-9.53-2.13Z"/><path class="cls-73" d="M238.52,114.1a13.25,13.25,0,0,0,9.52,2.14l.58-2.6a13.3,13.3,0,0,1-9.52-2.13C238.77,113,238.84,112.66,238.52,114.1Z"/></g><path class="cls-74" d="M232.64,169h0a1.3,1.3,0,0,0,1.56-1l12.15-54.32a1.3,1.3,0,0,0-1-1.55h0a1.29,1.29,0,0,0-1.55,1l-12.15,54.32A1.29,1.29,0,0,0,232.64,169Z"/><path class="cls-24" d="M245.17,105.66l1.52-4.48a.6.6,0,1,0-1.14-.39.31.31,0,0,0,0,.13l-.54,4.7a.1.1,0,0,0,.09.11A.09.09,0,0,0,245.17,105.66Z"/><path class="cls-11" d="M222,171.94c.39-2.74,4.38-4.9,9.26-4.9,4.64,0,8.47,1.94,9.18,4.48C237.46,175.15,227.18,175.72,222,171.94Z"/><path class="cls-75" d="M251.74,69.26h0a23.56,23.56,0,0,0-5.81,32.81h0A23.56,23.56,0,0,0,251.74,69.26Z"/><path class="cls-26" d="M249.16,83.82h0a13.11,13.11,0,0,0-3.23,18.25h0A13.11,13.11,0,0,0,249.16,83.82Z"/><ellipse class="cls-11" cx="97.91" cy="183.58" rx="2.53" ry="1.05"/><circle class="cls-54" cx="98.12" cy="181.42" r="2.41"/><path class="cls-10" d="M99.89,179.81a3,3,0,0,1,0,.31,2.41,2.41,0,0,1-2.41,2.41,2.38,2.38,0,0,1-1.77-.8,2.4,2.4,0,0,0,4.78-.31A2.37,2.37,0,0,0,99.89,179.81Z"/><ellipse class="cls-76" cx="97.76" cy="180.57" rx="0.85" ry="0.65"/><ellipse class="cls-11" cx="73.12" cy="183.78" rx="2.53" ry="1.05"/><circle class="cls-54" cx="73.32" cy="181.62" r="2.41"/><path class="cls-10" d="M75.09,180a1.55,1.55,0,0,1,0,.31,2.41,2.41,0,0,1-4.19,1.62A2.4,2.4,0,1,0,75.09,180Z"/><ellipse class="cls-77" cx="72.97" cy="180.77" rx="0.85" ry="0.65"/><ellipse class="cls-11" cx="60.77" cy="169.93" rx="2.53" ry="1.05"/><circle class="cls-54" cx="60.97" cy="167.77" r="2.41"/><path class="cls-10" d="M62.75,166.15c0,.11,0,.21,0,.31a2.4,2.4,0,0,1-2.41,2.41,2.37,2.37,0,0,1-1.78-.79,2.4,2.4,0,1,0,4.16-1.93Z"/><ellipse class="cls-78" cx="60.62" cy="166.92" rx="0.85" ry="0.65"/><ellipse class="cls-11" cx="118.6" cy="190.61" rx="2.53" ry="1.05"/><circle class="cls-54" cx="118.8" cy="188.45" r="2.41"/><path class="cls-10" d="M120.57,186.83c0,.11,0,.21,0,.32a2.4,2.4,0,0,1-2.41,2.4,2.37,2.37,0,0,1-1.77-.79,2.4,2.4,0,1,0,4.15-1.93Z"/><ellipse class="cls-79" cx="118.44" cy="187.6" rx="0.85" ry="0.65"/><ellipse class="cls-11" cx="168.19" cy="192.01" rx="2.53" ry="1.05"/><circle class="cls-54" cx="168.39" cy="189.86" r="2.41"/><path class="cls-10" d="M170.16,188.24a1.55,1.55,0,0,1,0,.31,2.41,2.41,0,0,1-4.19,1.62,2.4,2.4,0,1,0,4.15-1.93Z"/><ellipse class="cls-80" cx="168.04" cy="189" rx="0.85" ry="0.65"/><ellipse class="cls-11" cx="192.78" cy="190.61" rx="2.53" ry="1.05"/><circle class="cls-54" cx="192.98" cy="188.45" r="2.41"/><path class="cls-10" d="M194.76,186.83c0,.11,0,.21,0,.32a2.4,2.4,0,0,1-2.41,2.4,2.37,2.37,0,0,1-1.77-.79,2.4,2.4,0,1,0,4.15-1.93Z"/><ellipse class="cls-81" cx="192.63" cy="187.6" rx="0.85" ry="0.65"/><ellipse class="cls-11" cx="211.76" cy="185.59" rx="2.53" ry="1.05"/><circle class="cls-54" cx="211.96" cy="183.43" r="2.41"/><path class="cls-10" d="M213.73,181.81a1.75,1.75,0,0,1,0,.32,2.41,2.41,0,0,1-2.41,2.41,2.38,2.38,0,0,1-1.78-.8,2.4,2.4,0,1,0,4.15-1.93Z"/><ellipse class="cls-82" cx="211.61" cy="182.58" rx="0.85" ry="0.65"/><ellipse class="cls-11" cx="240.47" cy="183.18" rx="2.53" ry="1.05"/><circle class="cls-54" cx="240.67" cy="181.02" r="2.41"/><path class="cls-10" d="M242.45,179.4c0,.11,0,.21,0,.32a2.41,2.41,0,0,1-2.41,2.41,2.38,2.38,0,0,1-1.78-.8,2.4,2.4,0,1,0,4.16-1.93Z"/><path class="cls-83" d="M241.17,180.17a.88.88,0,1,1-.85-.65A.77.77,0,0,1,241.17,180.17Z"/><ellipse class="cls-11" cx="137.17" cy="185.79" rx="2.53" ry="1.05"/><circle class="cls-54" cx="137.37" cy="183.63" r="2.41"/><path class="cls-10" d="M139.14,182a1.75,1.75,0,0,1,0,.32,2.41,2.41,0,0,1-2.41,2.41,2.38,2.38,0,0,1-1.78-.8,2.4,2.4,0,1,0,4.15-1.93Z"/><ellipse class="cls-84" cx="137.02" cy="182.78" rx="0.85" ry="0.65"/><ellipse class="cls-11" cx="178.98" cy="181.57" rx="2.53" ry="1.05"/><circle class="cls-54" cx="179.18" cy="179.42" r="2.41"/><path class="cls-10" d="M181,177.8a3,3,0,0,1,0,.31,2.41,2.41,0,0,1-4.19,1.62A2.4,2.4,0,1,0,181,177.8Z"/><ellipse class="cls-85" cx="178.83" cy="178.56" rx="0.85" ry="0.65"/><ellipse class="cls-11" cx="220.34" cy="160.44" rx="2.53" ry="1.05"/><circle class="cls-54" cx="220.54" cy="158.28" r="2.41"/><path class="cls-10" d="M222.32,156.67a3,3,0,0,1,0,.31,2.41,2.41,0,0,1-2.41,2.41,2.38,2.38,0,0,1-1.78-.8,2.4,2.4,0,0,0,4.79-.31A2.37,2.37,0,0,0,222.32,156.67Z"/><ellipse class="cls-86" cx="220.19" cy="157.43" rx="0.85" ry="0.65"/><path class="cls-87" d="M151.82,106.7c-32.56,3.18-58.41,11.36-57.74,18.26h0v40.16c0,6.2,26.27,11.23,58.67,11.23s58.67-5,58.67-11.23l.58-51.7C211.32,106.52,184.37,103.51,151.82,106.7Z"/><g class="cls-52"><path class="cls-9" d="M208.24,141.59a28.46,28.46,0,0,1-23.65,25.07c-25.06,4.41-65.94,9.29-90,0,3.79,5.49,28.37,9.74,58.14,9.74,32.4,0,58.67-5,58.67-11.23l.58-51.7a3.17,3.17,0,0,0-.86-1.82Z"/></g><path class="cls-10" d="M212,116.1c-.3,15.86,3.51,18.15,1.91,23.25a3.12,3.12,0,0,1-5.17,1.14c-2.47-2.48-6.35-4-9-2.55s-4,4.25-4.86,7.06c-1.09,3.68-1.49,7.61-4.17,10.66a6.66,6.66,0,0,1-4.52,2.35c-4.74.27-7.06-4.81-8.51-9s-4.06-9-8.59-8.48a6.43,6.43,0,0,0-4.21,2.51c-2.49,3.13-2.72,7.12-4.26,10.61-1.15,2.6-3.36,5.06-6.2,5.21s-5.36-2.14-6.75-4.66c-1.87-3.39-2.45-7.41-5.3-10.32a6.92,6.92,0,0,0-2.22-1.54c-4.29-1.81-7.45,1.56-8.76,5.05-1,2.67-1.28,5.57-2.4,8.19-1.37,3.22-4.61,6.17-8.35,4.46a6.47,6.47,0,0,1-2.78-2.53c-3.1-5-.73-11.51-4.63-16.19a5.35,5.35,0,0,0-5.57-1.84c-4,1.21-3,6.16-6.54,8.37-2,1.26-5.06.37-6.26-.91-2.47-2.66-1.44-6.85-1.14-10.22a58.12,58.12,0,0,0,.38-9.07Z"/><path class="cls-11" d="M212,113.36c-.3,15.86,3.51,18.14,1.91,23.25a3.12,3.12,0,0,1-5.17,1.13c-2.47-2.47-6.35-4-9-2.54s-4,4.25-4.86,7.06c-1.09,3.67-1.49,7.61-4.17,10.65a6.62,6.62,0,0,1-4.52,2.35c-4.74.28-7.06-4.8-8.51-9s-4.06-9-8.59-8.48a6.47,6.47,0,0,0-4.21,2.51c-2.49,3.13-2.72,7.12-4.26,10.62-1.15,2.6-3.36,5.06-6.2,5.2s-5.36-2.13-6.75-4.66c-1.87-3.39-2.45-7.41-5.3-10.32a7.25,7.25,0,0,0-2.22-1.54c-4.29-1.81-7.45,1.57-8.76,5.06-1,2.66-1.28,5.57-2.4,8.18-1.37,3.23-4.61,6.18-8.35,4.47a6.53,6.53,0,0,1-2.78-2.53c-3.1-5-.73-11.52-4.63-16.19a5.36,5.36,0,0,0-5.57-1.85c-4,1.21-3,6.16-6.54,8.38-2,1.26-5.06.36-6.26-.92-2.47-2.65-1.44-6.84-1.14-10.22a58.12,58.12,0,0,0,.38-9.07Z"/><ellipse class="cls-12" cx="153.04" cy="119.19" rx="59.24" ry="12.55" transform="translate(-10.87 15.46) rotate(-5.59)"/><g class="cls-88"><path class="cls-26" d="M157.45,113.47a3.06,3.06,0,0,1-2.95,2.85,7.36,7.36,0,0,1-1.56,0h-.14a3,3,0,0,1-2.85-2.87l.21-59.13a5.62,5.62,0,0,1,1.05-3.25l2.78-4,2.69,4.06a5.77,5.77,0,0,1,1,3.2Z"/><path class="cls-89" d="M158.36,111.88a13.32,13.32,0,0,1-9.76,0c0-1.48,0-2.95,0-4.43a13.32,13.32,0,0,0,9.76,0C158.37,108.93,158.37,110.41,158.36,111.88Z"/><path class="cls-90" d="M158.39,103.46a13.32,13.32,0,0,1-9.76,0c0-1.47,0-1.18,0-2.66a13.32,13.32,0,0,0,9.76,0C158.39,102.27,158.4,102,158.39,103.46Z"/><path class="cls-91" d="M158.42,96.43a13.27,13.27,0,0,1-9.76,0V92a13.32,13.32,0,0,0,9.76,0C158.43,93.48,158.42,95,158.42,96.43Z"/><path class="cls-92" d="M158.45,88a13.32,13.32,0,0,1-9.76,0V85.31a13.32,13.32,0,0,0,9.76,0Z"/><path class="cls-93" d="M158.47,81a13.32,13.32,0,0,1-9.76,0l0-4.42a13.32,13.32,0,0,0,9.76,0Z"/><path class="cls-94" d="M158.5,72.56a13.32,13.32,0,0,1-9.76,0V69.87a13.32,13.32,0,0,0,9.76,0Z"/><path class="cls-95" d="M158.53,65.54a13.32,13.32,0,0,1-9.76,0V61.08a13.27,13.27,0,0,0,9.76,0Z"/><path class="cls-96" d="M158.56,57.11a13.27,13.27,0,0,1-9.76,0V54.42a13.27,13.27,0,0,0,9.76,0Z"/></g><path class="cls-97" d="M152.1,112h0a1.3,1.3,0,0,1-1.29-1.31L151,55a1.3,1.3,0,0,1,1.3-1.3h0a1.31,1.31,0,0,1,1.3,1.31l-.2,55.66A1.31,1.31,0,0,1,152.1,112Z"/><path class="cls-24" d="M153.94,47.4l-.49-4.7a.61.61,0,1,1,1.21-.13v.13l-.52,4.7a.1.1,0,0,1-.11.09A.09.09,0,0,1,153.94,47.4Z"/><path class="cls-11" d="M163.77,115.19c-.32-2.76-5.72-4.83-10.6-4.93-4.63-.1-9.52,3.62-10.29,6.15C148.37,119.61,160.57,118.24,163.77,115.19Z"/><ellipse class="cls-11" cx="107.75" cy="123" rx="2.53" ry="1.05"/><circle class="cls-26" cx="107.95" cy="120.84" r="2.41"/><path class="cls-10" d="M109.73,119.22c0,.1,0,.21,0,.31a2.4,2.4,0,0,1-4.18,1.62,2.4,2.4,0,1,0,4.15-1.93Z"/><ellipse class="cls-98" cx="107.6" cy="119.98" rx="0.85" ry="0.65"/><ellipse class="cls-11" cx="123.03" cy="112.5" rx="2.53" ry="1.05"/><circle class="cls-26" cx="123.23" cy="110.35" r="2.41"/><path class="cls-10" d="M125,108.73a3,3,0,0,1,0,.31,2.41,2.41,0,0,1-4.19,1.62,2.4,2.4,0,1,0,4.16-1.93Z"/><ellipse class="cls-99" cx="122.88" cy="109.49" rx="0.85" ry="0.65"/><ellipse class="cls-11" cx="160.19" cy="126.69" rx="2.53" ry="1.05"/><circle class="cls-26" cx="160.39" cy="124.53" r="2.41"/><path class="cls-10" d="M162.17,122.92a3,3,0,0,1,0,.31,2.41,2.41,0,0,1-4.19,1.62,2.4,2.4,0,1,0,4.16-1.93Z"/><ellipse class="cls-100" cx="160.04" cy="123.68" rx="0.85" ry="0.65"/><ellipse class="cls-11" cx="198.84" cy="115.16" rx="2.53" ry="1.05"/><circle class="cls-26" cx="199.04" cy="113.01" r="2.41"/><path class="cls-10" d="M200.82,111.39a3,3,0,0,1,0,.31,2.41,2.41,0,0,1-4.19,1.62,2.4,2.4,0,1,0,4.16-1.93Z"/><ellipse class="cls-101" cx="198.69" cy="112.15" rx="0.85" ry="0.65"/><ellipse class="cls-11" cx="178.44" cy="121.49" rx="2.53" ry="1.05"/><circle class="cls-26" cx="178.65" cy="119.33" r="2.41"/><path class="cls-10" d="M180.42,117.71c0,.11,0,.21,0,.32a2.41,2.41,0,0,1-2.41,2.41,2.38,2.38,0,0,1-1.77-.8,2.4,2.4,0,1,0,4.15-1.93Z"/><ellipse class="cls-102" cx="178.29" cy="118.48" rx="0.85" ry="0.65"/><ellipse class="cls-11" cx="172.3" cy="108.54" rx="2.53" ry="1.05"/><circle class="cls-26" cx="172.5" cy="106.38" r="2.41"/><path class="cls-10" d="M174.28,104.76c0,.11,0,.21,0,.32a2.41,2.41,0,0,1-2.41,2.41,2.38,2.38,0,0,1-1.77-.8,2.4,2.4,0,1,0,4.15-1.93Z"/><ellipse class="cls-103" cx="172.15" cy="105.53" rx="0.85" ry="0.65"/><ellipse class="cls-11" cx="124.02" cy="126.91" rx="2.53" ry="1.05"/><circle class="cls-26" cx="124.22" cy="124.75" r="2.41"/><path class="cls-10" d="M126,123.14a1.55,1.55,0,0,1,0,.31,2.4,2.4,0,0,1-2.41,2.41,2.38,2.38,0,0,1-1.77-.8,2.4,2.4,0,1,0,4.15-1.92Z"/><ellipse class="cls-104" cx="123.87" cy="123.9" rx="0.85" ry="0.65"/><ellipse class="cls-11" cx="139.74" cy="124.4" rx="2.53" ry="1.05"/><circle class="cls-26" cx="139.94" cy="122.24" r="2.41"/><path class="cls-10" d="M141.72,120.63a3,3,0,0,1,0,.31,2.41,2.41,0,0,1-2.41,2.41,2.38,2.38,0,0,1-1.77-.8,2.4,2.4,0,1,0,4.15-1.92Z"/><ellipse class="cls-105" cx="139.59" cy="121.39" rx="0.85" ry="0.65"/><path class="cls-106" d="M153.88,10.92h0a23.55,23.55,0,0,0,.1,33.31h0A23.55,23.55,0,0,0,153.88,10.92Z"/><path class="cls-26" d="M153.93,25.7h0a13.1,13.1,0,0,0,0,18.53h0A13.11,13.11,0,0,0,153.93,25.7Z"/><ellipse class="cls-107" cx="248.97" cy="82.45" rx="27.84" ry="29.98"/><ellipse class="cls-108" cx="65.86" cy="89.41" rx="27.84" ry="29.98"/><ellipse class="cls-109" cx="154.2" cy="29.98" rx="27.84" ry="29.98"/><ellipse class="cls-110" cx="27.84" cy="164.37" rx="27.84" ry="29.98"/><ellipse class="cls-111" cx="283.24" cy="144.56" rx="27.84" ry="29.98"/></g></g></svg>