<svg id="Layer_1" data-name="Layer 1" xmlns="http://www.w3.org/2000/svg" xmlns:xlink="http://www.w3.org/1999/xlink" viewBox="0 0 1912 1265.77"><defs><style>.cls-1{fill:url(#linear-gradient);}</style><linearGradient id="linear-gradient" y1="632.89" x2="1912" y2="632.89" gradientUnits="userSpaceOnUse"><stop offset="0" stop-color="#fff"/><stop offset="1" stop-color="#fff"/></linearGradient></defs><title>cloudfxl</title><path class="cls-1" d="M1912,79.39V1265.77H0V32.76c1.26,0,2.54-.06,3.81-.06A125.81,125.81,0,0,1,129.62,158.51a126.77,126.77,0,0,1-.94,15.18A125.88,125.88,0,0,1,240.39,269a112.63,112.63,0,0,1,176.86,87.12,112.17,112.17,0,0,1,52.34-12.9,113.87,113.87,0,0,1,13.9.88,54.51,54.51,0,0,1,106.77,15.47,53.84,53.84,0,0,1-.71,8.76,145.26,145.26,0,0,1,36.13,15.93,50.64,50.64,0,0,1,87.16-16.1,125.7,125.7,0,0,1,108.79-36.71,68.08,68.08,0,0,1,85.47-31.91c20.29-24.68,45.37-38.1,78.89-38.1A125.82,125.82,0,0,1,1109.53,363.5a50.61,50.61,0,0,1,57.78-8.28,54.5,54.5,0,0,1,95.93,7.62c1.74-.06,3.47-.09,5.22-.09a144.94,144.94,0,0,1,104.71,44.57,50.48,50.48,0,0,1,49.76-17.27A97.22,97.22,0,0,1,1511.24,317a54.52,54.52,0,0,1,73-67.55,125.86,125.86,0,0,1,105.11-75.72,126.77,126.77,0,0,1-.94-15.18,125.28,125.28,0,0,1,28.39-79.6,54.51,54.51,0,1,1,98.71-46.18A125.55,125.55,0,0,1,1912,79.39Z"/></svg>