<svg id="Layer_1" data-name="Layer 1" xmlns="http://www.w3.org/2000/svg" viewBox="0 0 150.28 189.4"><defs><style>.cls-1{fill:#fff;}</style></defs><title>stars2</title><path class="cls-1" d="M150,36c.71-.91-.27-2.66-1.39-1.79l-.3.21a1.07,1.07,0,0,0-.74.34c-.18.18-.35.38-.54.56q-.78.57-1.56,1.11a.93.93,0,0,0-.88-.38c-3.3.33-6.58.76-9.84,1.27-1.88-5.24-4-10.87-7.57-14.2a.14.14,0,0,0-.12,0c0-.3,0-.61,0-.92,0-.51-.86-.89-1.1-.29a34.1,34.1,0,0,0-1.33,4c.17-.84.33-1.68.5-2.52a.55.55,0,0,0-1.07-.28l-.09.38c-.4-.52-1.39-.41-1.32.38.09,1.38.15,2.75.21,4.12q-1.44,6-2.53,12.17a178.84,178.84,0,0,0-18.16,5.36,1.14,1.14,0,0,0,0,2.18l2.93,1.17a1.15,1.15,0,0,0,1,.81c.34,0,.68,0,1,0l11.08,4.43q-1,8.57-1.61,17.18c-.22.31-.46.6-.68.91-.75,1.06.93,2.27,1.8,1.36l.29-.31c.15.69,1.11,1.17,1.63.52q5.79-7.22,11.5-14.5l11,4.41c.41.29.82.55,1.23.84a1,1,0,0,0,1.11.09l2.69,1.08c1.57.62,2.23-1.93.67-2.55l-3.5-1.37c-.71-4.37-2.71-8.69-4.72-12.87C143.19,44.67,146.67,40.37,150,36ZM105.76,46.7c2-.67,4-1.31,6-1.91a1.36,1.36,0,0,0,0,.89l-4.92,1.45Zm29.71-.29-4.62,4.39-1.57,1.47c-1.66-1-3.34-1.88-5-2.8l.12-1.29a64.46,64.46,0,0,0,10.51-3.32C135.08,45.37,135.28,45.88,135.47,46.41Zm-8.89,8.43-2.81-1.1c.06-.51.11-1,.17-1.51,1.13.62,2.27,1.23,3.39,1.88C127.07,54.34,126.83,54.6,126.58,54.84Zm.32,3c-1.63,2-3.25,4-4.82,6.08.17-.85.36-1.69.52-2.55A53.36,53.36,0,0,0,126.9,57.87Zm.24-33.09c.4,4.22,2.62,8.84,4.64,13q-3.3.57-6.58,1.26C126.06,34.38,127.07,29.5,127.14,24.78ZM119.8,43.31l-2,.6c-1,0-1.92,0-2.89,0,1.68-.47,3.35-.9,5-1.32Zm-6.44,6.36c1.67-.09,3.33-.21,5-.42l.51.25c-.1.73-.21,1.47-.3,2.2ZM141.27,60c-2.3-1.59-4.64-3.12-7-4.61l.1-.12c1-1.2,2-2.42,3-3.63A54.55,54.55,0,0,0,141.27,60Z"/><path class="cls-1" d="M28.65,22.29c.58.18,1.27-.61.64-1l-.16-.12a.55.55,0,0,0-.3-.3l-.37-.17c-.28-.19-.56-.38-.83-.58a.46.46,0,0,0,0-.5Q26.54,17.24,25.27,15C27.53,13.09,30,11,31,8.66a0,0,0,0,0,0-.06c.15-.06.31-.11.45-.18s.29-.58,0-.59a16.81,16.81,0,0,0-2.24.06l1.34-.21a.29.29,0,0,0-.05-.57l-.21,0c.19-.29,0-.77-.42-.59-.67.29-1.34.56-2,.84q-3.26.36-6.49.92a92.25,92.25,0,0,0-5.9-8,.6.6,0,0,0-1.08.39L14.23,2.3A.59.59,0,0,0,14,3c.05.17.12.33.17.5-.07,2.1-.14,4.19-.22,6.29q-4.43,1-8.81,2.27l-.57-.17c-.66-.19-1,.86-.35,1.13l.2.09c-.31.2-.38.76,0,.9,3.07,1.06,6.16,2.09,9.24,3.12l-.21,6.25c-.07.25-.13.51-.2.76a.51.51,0,0,0,.15.57c0,.51,0,1-.05,1.52,0,.89,1.36.77,1.38-.12,0-.66,0-1.32.05-2a25.79,25.79,0,0,0,5.55-4.64C23.13,20.44,25.88,21.4,28.65,22.29ZM15.43,2.23c.69.88,1.37,1.76,2,2.66A.7.7,0,0,0,17,5c-.53-.73-1.06-1.46-1.6-2.18C15.42,2.65,15.42,2.44,15.43,2.23Zm5.45,14.69-3-1.51-1-.51c.18-1,.34-2,.49-3l.66-.17a34.41,34.41,0,0,0,3.53,4.62ZM15.11,14c0-.54,0-1.07.05-1.6l.78-.18c-.11.67-.21,1.35-.33,2Zm-1.45.7c-1.28-.45-2.57-.89-3.87-1.31.45-.06.9-.12,1.36-.2A27.82,27.82,0,0,0,13.66,14.72Zm16.46-5.8a22.08,22.08,0,0,0-5.63,4.63q-.87-1.53-1.8-3A47.2,47.2,0,0,0,30.12,8.92Zm-10.5-.33L19,7.69c-.19-.47-.35-1-.52-1.43.53.75,1,1.5,1.55,2.26ZM15.31,6.53c.35.82.7,1.62,1.1,2.4l0,.3-1.14.24C15.26,8.49,15.29,7.51,15.31,6.53Zm-.13,15.69c.38-1.42.72-2.86,1-4.29l.08,0c.78.3,1.56.57,2.34.86A31,31,0,0,0,15.18,22.22Z"/><path class="cls-1" d="M4.34,170c6.49-1.69,23.08-9.21,29.33-4.7,4.89,3.54,9,17,12.64,22.39,1.45,2.17,5.43,2.5,6.14-.6,3.73-16.18,9.62-27.37,26.66-32.38a3.08,3.08,0,0,0,2-1.59c1.64-.08,3-2.26,1.54-3.61-5.38-4.88-14-9.38-18.21-15-5-6.73-4.49-17.81-5.48-25.81-.2-1.69-2.24-2.26-3.56-1.64-3.22,1.5-6.73,3-9.57,5.24-6.9,5.41-3.73,7.52-12.83,5.28-7.61-1.87-14.57-6.74-22.61-8.48a3,3,0,0,0-3.5,4.25c2.56,5.67,5.65,11.45,7.85,17.27a14.45,14.45,0,0,1,2.87,10q2.19,5.57-4,6.89c-5.17,6.67-9.56,8.94-13.24,17C-.84,167.15,1,170.91,4.34,170Zm20-21.83c.75-1.64,2.1-3,2.42-4.9,1.13-6.62-6.36-18.43-11.36-26.81,7.88,2.6,14.08,7.06,22,10.42a3,3,0,0,0,3-.7c3-2.5,9.58-13,14.48-10.31,2.11,1.16,1,14.4,2.6,17.79,3.09,6.46,10.67,11.59,17.3,15.85-15.12,5.23-21.88,14.19-26.57,28.38a200.49,200.49,0,0,1-10.39-20.6A3.5,3.5,0,0,0,34,155.55c-7.25,1.78-14.5,3.47-21.77,5.12C16.69,156.31,22.25,152.85,24.37,148.2Z"/></svg>