<svg id="Layer_1" data-name="Layer 1" xmlns="http://www.w3.org/2000/svg" viewBox="0 0 230.75 148.26"><defs><style>.cls-1{fill:#fff;}</style></defs><title>stars2-02</title><path class="cls-1" d="M9,13.48c-1-.49-2.54.85-1.45,1.75l.27.25a1.13,1.13,0,0,0,.49.64l.67.41c.48.42,1,.85,1.42,1.29a.91.91,0,0,0-.18.93c1,3.15,2.18,6.26,3.38,9.34-4.7,3-9.75,6.25-12.21,10.47a.11.11,0,0,0,0,.12c-.29.08-.6.14-.89.23-.5.15-.68,1,0,1.13a34.63,34.63,0,0,0,4.23.43l-2.57.06a.55.55,0,0,0,0,1.1h.4c-.42.5-.1,1.44.66,1.2,1.32-.39,2.64-.74,4-1.1q6.21.09,12.43-.17a179.73,179.73,0,0,0,9.18,16.56,1.14,1.14,0,0,0,2.13-.47c.17-1,.34-2.08.5-3.11a1.14,1.14,0,0,0,.56-1.2c-.05-.33-.14-.65-.2-1q1-5.88,1.91-11.77,8.59-.84,17.12-2.17l1,.47c1.2.5,2-1.4.94-2l-.37-.22a1,1,0,0,0,.16-1.7q-8.31-4.08-16.66-8.08,1-5.85,1.91-11.72c.19-.46.36-.92.56-1.38a1,1,0,0,0-.16-1.11c.16-1,.31-1.9.47-2.85.26-1.67-2.38-1.76-2.63-.1-.2,1.23-.39,2.47-.58,3.71-4.11,1.64-7.9,4.54-11.54,7.41C18.9,18.28,14,15.82,9,13.48ZM29,54.38q-1.64-2.72-3.17-5.49a1.31,1.31,0,0,0,.87-.17c.83,1.5,1.66,3,2.48,4.49ZM22.28,25.44,27.57,29c.59.39,1.19.8,1.78,1.21-.59,1.83-1.11,3.67-1.64,5.51l-1.29.17a65.15,65.15,0,0,0-5.52-9.54Zm10.16,6.85c-.15,1-.31,2-.46,3l-1.51.16c.36-1.24.71-2.48,1.1-3.71Zm2.89-1c2.32,1.14,4.64,2.29,7,3.38-.87,0-1.74,0-2.6,0A53.78,53.78,0,0,0,35.33,31.32ZM3,38.28C7,37,11,33.8,14.69,30.92Q16,34,17.35,37.06C12.58,37.24,7.6,37.32,3,38.28Zm19.69,3.13,1,1.85c.24.93.44,1.87.63,2.82Q23.11,43.77,22,41.45Zm7.6,4.91c-.45-1.62-.93-3.21-1.49-4.78,0-.18.09-.37.13-.55l2.21-.18C30.84,42.64,30.55,44.48,30.27,46.32Zm4-29.49q-1.58,3.89-3,7.83l-.14-.07c-1.39-.74-2.8-1.45-4.2-2.17A56.49,56.49,0,0,0,34.27,16.83Z"/><path class="cls-1" d="M74,122c.06-.61-.87-1.11-1.12-.41l-.08.18a.63.63,0,0,0-.23.36c0,.13,0,.27-.08.4-.13.32-.25.63-.39.94a.47.47,0,0,0-.49.07q-2.07,1.62-4,3.35c-2.31-1.8-4.84-3.72-7.38-4.19a.05.05,0,0,0,0,0c-.1-.13-.18-.27-.28-.4s-.63-.16-.57.18a18.64,18.64,0,0,0,.55,2.17c-.17-.42-.33-.84-.49-1.26s-.67-.19-.55.17l.06.2c-.32-.12-.73.21-.48.54.43.59.84,1.18,1.25,1.77q1.08,3.11,2.31,6.14a94.15,94.15,0,0,0-6.57,7.51.6.6,0,0,0,.61,1l1.64-.3a.58.58,0,0,0,.69.06c.15-.08.3-.19.45-.28L64.91,139q1.95,4.11,4.13,8.11c0,.2,0,.39-.05.59,0,.69,1.05.75,1.19.1a2.07,2.07,0,0,1,0-.22.5.5,0,0,0,.87-.23q.54-4.84,1-9.7l6.16-1.15c.26,0,.52,0,.78,0a.51.51,0,0,0,.52-.27l1.5-.28c.87-.17.45-1.49-.42-1.33l-1.94.38a26.08,26.08,0,0,0-5.74-4.4C73.35,127.74,73.69,124.85,74,122Zm-16.7,17.26c.71-.86,1.42-1.72,2.16-2.55a.67.67,0,0,0,.24.4l-1.78,2ZM70.4,130.7,69.58,134c-.09.36-.18.73-.28,1.1-1,0-2,.1-3,.17l-.31-.61a33.77,33.77,0,0,0,3.74-4.45ZM68.82,137l-1.56.3c-.11-.24-.23-.48-.35-.72l2-.12C68.9,136.6,68.87,136.78,68.82,137Zm1,1.26c-.16,1.36-.31,2.71-.43,4.07-.16-.43-.32-.86-.49-1.28A26.78,26.78,0,0,0,69.82,138.22Zm-9.23-14.8a22.05,22.05,0,0,0,5.74,4.49c-.87.79-1.73,1.6-2.57,2.42A46.53,46.53,0,0,0,60.59,123.42Zm2,10.32-.73.84c-.42.28-.86.55-1.29.82.62-.68,1.24-1.35,1.87-2Zm-1.07,4.65c.72-.51,1.42-1,2.1-1.59l.3,0,.48,1.06Zm15.34-3.28c-1.48-.06-2.95-.08-4.42-.08v-.09c.12-.82.22-1.64.33-2.47A28.61,28.61,0,0,0,76.82,135.11Z"/><path class="cls-1" d="M221.58,72.91c-3.05-6-14-20.53-11-27.61,2.39-5.55,14.64-12.52,19.1-17.2,1.81-1.9,1.27-5.85-1.91-5.87-16.61-.12-28.81-3.44-37.4-19a3.1,3.1,0,0,0-2-1.57C188,.09,185.56-.79,184.57,1c-3.6,6.31-6.11,15.71-10.7,21-5.48,6.36-16.41,8.25-24,11-1.6.57-1.71,2.69-.82,3.84,2.16,2.81,4.4,5.91,7.19,8.2,6.79,5.56,8.15,2,7.94,11.37-.17,7.84-3.41,15.7-3.36,23.92a3,3,0,0,0,4.91,2.49c5-3.74,9.95-8,15.16-11.41a14.43,14.43,0,0,1,9.09-5q5-3.35,7.58,2.35c7.64,3.6,10.81,7.39,19.47,9.23C219.89,78.58,223.17,76,221.58,72.91ZM195.92,58.1c-1.77-.37-3.42-1.39-5.31-1.3-6.71.33-16.6,10.21-23.7,16.91.83-8.25,3.83-15.28,5.4-23.71A3,3,0,0,0,171,47.25c-3.09-2.35-14.8-6.52-13.22-11.9.68-2.3,13.85-4.08,16.81-6.4,5.62-4.42,9-12.93,11.7-20.33,8.39,13.62,18.61,18.27,33.48,19.77A198.49,198.49,0,0,1,201.9,43a3.52,3.52,0,0,0-.89,4.14q5,10,9.73,20.13C205.51,63.83,200.92,59.16,195.92,58.1Z"/></svg>